<svg width="373" height="134" viewBox="0 0 373 134" fill="none" xmlns="http://www.w3.org/2000/svg">
<g filter="url(#filter0_d_367_50)">
<rect width="367" height="128" rx="20" fill="url(#paint0_linear_367_50)" shape-rendering="crispEdges"/>
<rect x="1" y="1" width="365" height="126" rx="19" stroke="#FDDB5D" stroke-width="2" shape-rendering="crispEdges"/>
<path d="M42.668 42.854C39.236 42.854 37.168 45.384 37.168 49.146C37.168 52.996 39.412 55.218 42.69 55.218C45.396 55.218 47.574 53.832 47.574 50.62V50.158H42.25V48.244H49.598V57.022H47.794L47.64 54.866C46.782 56.252 44.846 57.264 42.514 57.264C38.004 57.264 34.902 54.008 34.902 49.102C34.902 44.262 38.026 40.83 42.712 40.83C46.188 40.83 48.894 42.832 49.422 45.89H47.134C46.54 43.866 44.78 42.854 42.668 42.854ZM54.2103 57H52.1423V40.808H54.2103V57ZM56.3305 51.61C56.3305 48.288 58.7065 45.956 61.9405 45.956C65.1525 45.956 67.5285 48.288 67.5285 51.61C67.5285 54.932 65.1525 57.264 61.9405 57.264C58.7065 57.264 56.3305 54.932 56.3305 51.61ZM58.4205 51.61C58.4205 53.854 59.8505 55.416 61.9405 55.416C64.0085 55.416 65.4605 53.854 65.4605 51.61C65.4605 49.366 64.0085 47.804 61.9405 47.804C59.8505 47.804 58.4205 49.366 58.4205 51.61ZM71.4677 57H69.5977V40.808H71.6657V48.09C72.3697 46.682 73.8217 45.934 75.5817 45.934C78.6617 45.934 80.5097 48.354 80.5097 51.676C80.5097 54.932 78.5737 57.264 75.4497 57.264C73.7557 57.264 72.3257 56.516 71.6217 55.042L71.4677 57ZM71.6877 51.588C71.6877 53.832 72.9637 55.394 75.0757 55.394C77.1877 55.394 78.4417 53.81 78.4417 51.588C78.4417 49.388 77.1877 47.804 75.0757 47.804C72.9637 47.804 71.6877 49.388 71.6877 51.588ZM85.7151 57.264C83.4051 57.264 82.0411 55.966 82.0411 54.008C82.0411 52.028 83.5151 50.796 86.0451 50.598L89.4331 50.334V50.026C89.4331 48.222 88.3551 47.584 86.9031 47.584C85.1651 47.584 84.1751 48.354 84.1751 49.652H82.3711C82.3711 47.408 84.2191 45.934 86.9911 45.934C89.6531 45.934 91.4571 47.342 91.4571 50.246V57H89.6971L89.4771 55.262C88.9271 56.494 87.4531 57.264 85.7151 57.264ZM86.3091 55.658C88.2671 55.658 89.4551 54.382 89.4551 52.358V51.786L86.7051 52.006C84.8791 52.182 84.1311 52.886 84.1311 53.942C84.1311 55.086 84.9671 55.658 86.3091 55.658ZM96.2131 57H94.1451V40.808H96.2131V57ZM111.367 51.324H107.341V57H105.185V41.094H111.367C114.491 41.094 116.493 43.14 116.493 46.198C116.493 49.168 114.469 51.324 111.367 51.324ZM110.993 43.03H107.341V49.388H110.905C113.039 49.388 114.227 48.134 114.227 46.176C114.227 44.174 113.017 43.03 110.993 43.03ZM121.079 57.264C118.769 57.264 117.405 55.966 117.405 54.008C117.405 52.028 118.879 50.796 121.409 50.598L124.797 50.334V50.026C124.797 48.222 123.719 47.584 122.267 47.584C120.529 47.584 119.539 48.354 119.539 49.652H117.735C117.735 47.408 119.583 45.934 122.355 45.934C125.017 45.934 126.821 47.342 126.821 50.246V57H125.061L124.841 55.262C124.291 56.494 122.817 57.264 121.079 57.264ZM121.673 55.658C123.631 55.658 124.819 54.382 124.819 52.358V51.786L122.069 52.006C120.243 52.182 119.495 52.886 119.495 53.942C119.495 55.086 120.331 55.658 121.673 55.658ZM128.173 61.818V60.124H129.559C130.549 60.124 131.341 59.97 131.847 58.606L132.221 57.572L127.887 46.242H130.065L133.189 54.91L136.379 46.242H138.513L133.431 59.42C132.705 61.268 131.627 62.038 129.977 62.038C129.295 62.038 128.723 61.95 128.173 61.818ZM146.104 46.154V48.046H145.18C143.222 48.046 142.012 49.234 142.012 51.302V57H139.944V46.264H141.88L142.012 47.892C142.452 46.77 143.53 46.022 145.004 46.022C145.378 46.022 145.686 46.066 146.104 46.154ZM146.733 51.61C146.733 48.288 149.109 45.956 152.343 45.956C155.555 45.956 157.931 48.288 157.931 51.61C157.931 54.932 155.555 57.264 152.343 57.264C149.109 57.264 146.733 54.932 146.733 51.61ZM148.823 51.61C148.823 53.854 150.253 55.416 152.343 55.416C154.411 55.416 155.863 53.854 155.863 51.61C155.863 49.366 154.411 47.804 152.343 47.804C150.253 47.804 148.823 49.366 148.823 51.61ZM162.113 57H160.045V40.808H162.113V57ZM167.049 57H164.981V40.808H167.049V57ZM177.737 56.978H175.669V40.808H177.737V47.892C178.419 46.726 179.717 45.934 181.389 45.934C184.139 45.934 185.459 47.672 185.459 50.422V57H183.391V50.884C183.391 48.706 182.357 47.826 180.817 47.826C178.815 47.826 177.737 49.278 177.737 51.126V56.978ZM195.539 46.242H197.585V57H195.737L195.517 55.372C194.901 56.494 193.471 57.264 191.887 57.264C189.379 57.264 187.971 55.57 187.971 52.93V46.242H190.039V52.248C190.039 54.558 191.029 55.438 192.613 55.438C194.505 55.438 195.539 54.228 195.539 51.918V46.242ZM202.235 57H200.365V40.808H202.433V48.09C203.137 46.682 204.589 45.934 206.349 45.934C209.429 45.934 211.277 48.354 211.277 51.676C211.277 54.932 209.341 57.264 206.217 57.264C204.523 57.264 203.093 56.516 202.389 55.042L202.235 57ZM202.455 51.588C202.455 53.832 203.731 55.394 205.843 55.394C207.955 55.394 209.209 53.81 209.209 51.588C209.209 49.388 207.955 47.804 205.843 47.804C203.731 47.804 202.455 49.388 202.455 51.588ZM217.988 46.242H219.572V44.526C219.572 41.886 221.024 40.808 222.982 40.808C223.378 40.808 223.84 40.83 224.258 40.896V42.678H223.334C221.992 42.678 221.64 43.36 221.64 44.526V46.242H224.192V47.98H221.64V57H219.572V47.98H217.988V46.242ZM224.869 51.61C224.869 48.288 227.245 45.956 230.479 45.956C233.691 45.956 236.067 48.288 236.067 51.61C236.067 54.932 233.691 57.264 230.479 57.264C227.245 57.264 224.869 54.932 224.869 51.61ZM226.959 51.61C226.959 53.854 228.389 55.416 230.479 55.416C232.547 55.416 233.999 53.854 233.999 51.61C233.999 49.366 232.547 47.804 230.479 47.804C228.389 47.804 226.959 49.366 226.959 51.61ZM244.296 46.154V48.046H243.372C241.414 48.046 240.204 49.234 240.204 51.302V57H238.136V46.264H240.072L240.204 47.892C240.644 46.77 241.722 46.022 243.196 46.022C243.57 46.022 243.878 46.066 244.296 46.154ZM255.947 48.772H254.363V47.342L258.873 43.008H251.723V41.094H261.601V42.832L257.245 46.99C259.951 47.32 261.997 49.146 261.997 52.006C261.997 55.218 259.577 57.264 256.343 57.264C253.219 57.264 250.975 55.35 250.975 52.05H253.109C253.109 54.118 254.385 55.328 256.387 55.328C258.455 55.328 259.797 54.008 259.797 51.962C259.797 50.048 258.477 48.772 255.947 48.772ZM270.629 51.324H266.603V57H264.447V41.094H270.629C273.753 41.094 275.755 43.14 275.755 46.198C275.755 49.168 273.731 51.324 270.629 51.324ZM270.255 43.03H266.603V49.388H270.167C272.301 49.388 273.489 48.134 273.489 46.176C273.489 44.174 272.279 43.03 270.255 43.03ZM41.656 76.154V78.046H40.732C38.774 78.046 37.564 79.234 37.564 81.302V87H35.496V76.264H37.432L37.564 77.892C38.004 76.77 39.082 76.022 40.556 76.022C40.93 76.022 41.238 76.066 41.656 76.154ZM50.8116 76.242H52.8576V87H51.0096L50.7896 85.372C50.1736 86.494 48.7436 87.264 47.1596 87.264C44.6516 87.264 43.2436 85.57 43.2436 82.93V76.242H45.3116V82.248C45.3116 84.558 46.3016 85.438 47.8856 85.438C49.7776 85.438 50.8116 84.228 50.8116 81.918V76.242ZM57.706 87H55.638V76.242H57.508L57.728 77.892C58.41 76.66 59.774 75.934 61.292 75.934C64.13 75.934 65.428 77.672 65.428 80.422V87H63.36V80.884C63.36 78.706 62.348 77.826 60.764 77.826C58.828 77.826 57.706 79.212 57.706 81.302V87ZM76.882 87L72.548 76.242H74.748L77.102 82.248C77.476 83.26 77.784 84.162 77.96 84.822C78.136 84.118 78.488 83.194 78.862 82.248L81.26 76.242H83.416L78.928 87H76.882ZM85.8533 73.69C85.1053 73.69 84.4893 73.074 84.4893 72.326C84.4893 71.556 85.1053 70.962 85.8533 70.962C86.6013 70.962 87.2173 71.556 87.2173 72.326C87.2173 73.074 86.6013 73.69 85.8533 73.69ZM84.8413 87V76.242H86.9093V87H84.8413ZM88.8116 83.876H90.7916C90.7916 84.976 91.6276 85.636 92.9916 85.636C94.4436 85.636 95.2796 85.042 95.2796 84.052C95.2796 83.326 94.9276 82.886 93.8056 82.6L91.9136 82.16C89.9996 81.698 89.0976 80.752 89.0976 79.168C89.0976 77.188 90.7696 75.934 93.1456 75.934C95.4996 75.934 97.0396 77.254 97.0836 79.3H95.1036C95.0596 78.222 94.3336 77.54 93.0796 77.54C91.7816 77.54 91.0556 78.112 91.0556 79.102C91.0556 79.828 91.5836 80.312 92.6396 80.576L94.5316 81.038C96.3576 81.478 97.2596 82.314 97.2596 83.92C97.2596 85.966 95.4996 87.264 92.9476 87.264C90.4176 87.264 88.8116 85.922 88.8116 83.876ZM100.345 73.69C99.597 73.69 98.981 73.074 98.981 72.326C98.981 71.556 99.597 70.962 100.345 70.962C101.093 70.962 101.709 71.556 101.709 72.326C101.709 73.074 101.093 73.69 100.345 73.69ZM99.333 87V76.242H101.401V87H99.333ZM106.053 87H104.183V70.808H106.251V78.09C106.955 76.682 108.407 75.934 110.167 75.934C113.247 75.934 115.095 78.354 115.095 81.676C115.095 84.932 113.159 87.264 110.035 87.264C108.341 87.264 106.911 86.516 106.207 85.042L106.053 87ZM106.273 81.588C106.273 83.832 107.549 85.394 109.661 85.394C111.773 85.394 113.027 83.81 113.027 81.588C113.027 79.388 111.773 77.804 109.661 77.804C107.549 77.804 106.273 79.388 106.273 81.588ZM118.167 73.69C117.419 73.69 116.803 73.074 116.803 72.326C116.803 71.556 117.419 70.962 118.167 70.962C118.915 70.962 119.531 71.556 119.531 72.326C119.531 73.074 118.915 73.69 118.167 73.69ZM117.155 87V76.242H119.223V87H117.155ZM124.117 87H122.049V70.808H124.117V87ZM127.953 73.69C127.205 73.69 126.589 73.074 126.589 72.326C126.589 71.556 127.205 70.962 127.953 70.962C128.701 70.962 129.317 71.556 129.317 72.326C129.317 73.074 128.701 73.69 127.953 73.69ZM126.941 87V76.242H129.009V87H126.941ZM134.828 87H132.76V77.98H130.648V76.242H132.76V72.876H134.828V76.242H136.94V77.98H134.828V87ZM137.541 91.818V90.124H138.927C139.917 90.124 140.709 89.97 141.215 88.606L141.589 87.572L137.255 76.242H139.433L142.557 84.91L145.747 76.242H147.881L142.799 89.42C142.073 91.268 140.995 92.038 139.345 92.038C138.663 92.038 138.091 91.95 137.541 91.818Z" fill="white"/>
</g>
<defs>
<filter id="filter0_d_367_50" x="0" y="0" width="373" height="134" filterUnits="userSpaceOnUse" color-interpolation-filters="sRGB">
<feFlood flood-opacity="0" result="BackgroundImageFix"/>
<feColorMatrix in="SourceAlpha" type="matrix" values="0 0 0 0 0 0 0 0 0 0 0 0 0 0 0 0 0 0 127 0" result="hardAlpha"/>
<feOffset dx="6" dy="6"/>
<feComposite in2="hardAlpha" operator="out"/>
<feColorMatrix type="matrix" values="0 0 0 0 0 0 0 0 0 0.427451 0 0 0 0 0.835294 0 0 0 0.4 0"/>
<feBlend mode="normal" in2="BackgroundImageFix" result="effect1_dropShadow_367_50"/>
<feBlend mode="normal" in="SourceGraphic" in2="effect1_dropShadow_367_50" result="shape"/>
</filter>
<linearGradient id="paint0_linear_367_50" x1="367" y1="64" x2="0" y2="64" gradientUnits="userSpaceOnUse">
<stop stop-color="#0183FF"/>
<stop offset="1" stop-color="#006DD5"/>
</linearGradient>
</defs>
</svg>
