<svg width="62" height="62" viewBox="0 0 62 62" fill="none" xmlns="http://www.w3.org/2000/svg">
<circle cx="30.9997" cy="30.9997" r="30.9997" fill="#1B4369"/>
<path fill-rule="evenodd" clip-rule="evenodd" d="M40.7852 13.8371C39.3318 16.4224 31.8301 30.2784 31.8627 30.3172C31.9108 30.3742 50.8478 27.4542 50.924 27.378C50.9521 27.35 49.0353 26.3456 46.6646 25.1461L42.3542 22.9654L41.7407 18.097L41.1272 13.2285L40.7852 13.8371ZM27.592 16.4274C24.4341 17.1213 22.0351 18.4765 19.7958 20.8318C17.8241 22.9057 16.6619 25.0573 16.014 27.8338C15.6091 29.5688 15.6433 33.003 16.0817 34.6306C16.8405 37.4476 18.1401 39.6962 20.1532 41.6755C25.9758 47.4008 35.3161 47.3578 41.0949 41.5789C42.2131 40.4607 43.5801 38.4826 44.2023 37.082C44.7545 35.8395 45.3052 33.567 45.4219 32.0502L45.5211 30.7594L44.6222 30.869C44.1279 30.9292 43.6653 31.0344 43.5942 31.1024C43.5232 31.1705 43.4079 31.7368 43.3379 32.3607C42.759 37.5223 39.4769 41.5955 34.519 43.3051C33.1133 43.7898 33.0051 43.8034 30.5634 43.8026C28.1128 43.8018 28.0178 43.7897 26.5707 43.2917C23.1581 42.1175 20.52 39.8064 18.9893 36.6496C18.0712 34.7563 17.7532 33.3447 17.74 31.1048C17.7266 28.8521 18.0649 27.3331 19.0118 25.3949C20.6867 21.9667 23.6442 19.5932 27.5967 18.5053C29.0331 18.1099 32.2815 18.156 33.798 18.5932C34.4475 18.7805 35.0357 18.9337 35.1051 18.9337C35.2428 18.9337 36.0404 17.5395 36.0404 17.2988C36.0404 17.121 34.3424 16.5792 33.0838 16.3556C31.8619 16.1385 28.7198 16.1795 27.592 16.4274ZM28.2071 21.4515C26.5006 21.8826 25.1268 22.6903 23.6983 24.1025C22.6127 25.1758 22.2812 25.6226 21.7759 26.6928C20.8069 28.7457 20.5276 30.4255 20.8269 32.4003C21.1751 34.6971 22.0946 36.503 23.7446 38.1303C24.8868 39.2567 26.5858 40.2031 28.1992 40.6119C29.3936 40.9145 31.8575 40.9086 33.0518 40.6004C36.8989 39.6071 39.7686 36.2745 40.3552 32.1185L40.4377 31.5347L39.6463 31.635C38.3846 31.7951 38.3776 31.8002 38.1926 32.7213C37.6397 35.4744 35.2934 37.8926 32.4588 38.6309C28.507 39.6603 24.279 37.2748 23.0844 33.3415C22.8208 32.4736 22.7779 32.0157 22.8336 30.6636C22.8927 29.2273 22.9586 28.9088 23.3858 27.9962C24.1016 26.4666 24.8462 25.5455 26.051 24.6993C27.777 23.4872 29.9366 23.0182 32.0891 23.388L32.778 23.5064L33.1921 22.662C33.4198 22.1975 33.6062 21.7916 33.6062 21.7598C33.6062 21.728 33.3836 21.6202 33.1117 21.5201C32.3127 21.2261 29.2677 21.1835 28.2071 21.4515ZM28.9961 26.6082C25.8213 27.7406 24.8502 31.7448 27.1367 34.2757C28.0016 35.2329 29.17 35.7287 30.5634 35.7294C31.8995 35.7301 32.7716 35.4012 33.7302 34.5352C34.2368 34.0776 35.2248 32.5139 35.088 32.3863C35.0679 32.3674 34.5212 32.4359 33.8729 32.5382C33.0722 32.6647 32.5844 32.8273 32.3515 33.0455C31.6503 33.7024 30.2044 33.9066 29.3568 33.4684C28.7469 33.1529 28.1647 32.4098 27.9746 31.7042C27.6425 30.4711 28.1911 29.2997 29.3953 28.6706C29.975 28.3678 30.2319 28.0964 30.6564 27.3394L31.1896 26.3885L30.3821 26.3952C29.938 26.3988 29.3142 26.4947 28.9961 26.6082Z" fill="white"/>
</svg>
