<svg width="215" height="99" viewBox="0 0 215 99" fill="none" xmlns="http://www.w3.org/2000/svg">
<path d="M134.235 94.5433C128.832 94.5433 125.732 90.9672 125.732 85.9342C125.732 79.1263 130.315 74.3051 136.514 74.3051C141.388 74.3051 144.328 77.219 144.487 81.4839H140.063C139.745 79.3117 138.129 78.3581 135.984 78.3581C132.381 78.3581 130.156 81.4839 130.156 85.6693C130.156 88.5302 131.719 90.4904 134.394 90.4904C136.778 90.4904 138.394 89.5897 139.295 87.3116H143.851C142.341 92.0533 138.977 94.5433 134.235 94.5433ZM165.007 82.9143C165.007 89.4838 160.503 94.5433 154.517 94.5433C149.404 94.5433 145.987 91.0732 145.987 85.9606C145.987 79.3912 150.464 74.3051 156.45 74.3051C161.563 74.3051 165.007 77.8018 165.007 82.9143ZM160.583 83.3382C160.583 80.1859 158.941 78.3316 156.08 78.3316C152.821 78.3316 150.411 81.4574 150.411 85.5103C150.411 88.6096 152.08 90.4904 154.914 90.4904C158.172 90.4904 160.583 87.3646 160.583 83.3382ZM170.547 94.2255H166.415L169.514 74.623H176.799C180.693 74.623 183.156 76.8217 183.156 80.2918C183.156 82.8878 181.646 85.0865 178.891 86.411L181.302 94.2255H177.037L174.944 87.3116H171.633L170.547 94.2255ZM173.064 78.3316L172.216 83.656H175.421C177.54 83.656 178.838 82.517 178.838 80.6362C178.838 79.1793 177.832 78.3316 176.137 78.3316H173.064ZM193.111 87.6825H189.482L188.448 94.2255H184.316L187.415 74.623H194.647C198.303 74.623 200.634 76.8746 200.634 80.3978C200.634 84.6891 197.561 87.6825 193.111 87.6825ZM193.561 78.3316H190.965L190.064 83.9739H192.793C195.044 83.9739 196.342 82.8349 196.342 80.8216C196.342 79.2322 195.362 78.3316 193.561 78.3316ZM199.959 94.5698C198.714 94.5698 197.946 93.8016 197.946 92.5831C197.946 91.0997 199.191 89.8546 200.701 89.8546C201.946 89.8546 202.741 90.6493 202.741 91.8679C202.741 93.3248 201.443 94.5698 199.959 94.5698Z" fill="white"/>
<path fill-rule="evenodd" clip-rule="evenodd" d="M24.302 0.0504076C24.2879 0.0737189 23.4205 2.37871 22.3743 5.17268C21.3282 7.96664 18.8269 14.6468 16.8158 20.0174C14.8047 25.388 12.1141 32.5761 10.8366 35.991C9.55919 39.4058 8.45493 42.3522 8.3827 42.5384C8.31053 42.7247 7.96835 43.6391 7.62232 44.5704C7.27636 45.5017 6.95765 46.3526 6.9142 46.4613C6.82222 46.6912 6.25335 48.2109 5.95287 49.0295C5.83894 49.3399 5.68692 49.7463 5.61514 49.9326C5.54336 50.1188 5.32758 50.6903 5.13566 51.2025C4.94375 51.7148 4.73823 52.2609 4.67893 52.4161C4.61956 52.5713 3.96369 54.3239 3.22142 56.3107C2.4791 58.2975 1.45062 61.0481 0.935876 62.4231C0.42113 63.7981 0 64.9602 0 65.0054C0 65.0771 1.1669 65.0877 9.10725 65.0877C17.7286 65.0877 18.2165 65.0825 18.2528 64.9889C18.2739 64.9346 18.6297 63.9885 19.0436 62.8864C20.7852 58.2488 21.6061 56.0706 21.6972 55.8448L21.794 55.6047L28.4606 55.619L35.1271 55.6334L35.1553 60.3464L35.1835 65.0595H44.2686H53.3537L53.3678 32.5338L53.382 0.00807483H38.8548C30.8648 0.00807483 24.3161 0.0270964 24.302 0.0504076ZM77.3924 0.0439172C77.3304 0.0564477 77.1272 0.0945472 76.941 0.128583C75.5255 0.387321 73.5405 1.10805 72.2574 1.82917C68.7451 3.80312 66.5624 6.7119 65.8305 10.3937C65.6954 11.0737 64.9428 15.3083 64.4113 18.3805C64.3361 18.8151 64.1872 19.666 64.0805 20.2714C63.9738 20.8767 63.7812 21.9689 63.6526 22.6985C63.524 23.428 63.3327 24.5202 63.2275 25.1255C63.1222 25.7309 62.8848 27.0771 62.7 28.1171C62.515 29.157 62.2332 30.7572 62.0736 31.673C61.7545 33.5035 61.6319 34.1995 61.2226 36.499C61.1287 37.0267 60.9659 37.9538 60.8608 38.5592C60.7557 39.1645 60.578 40.1759 60.4659 40.8067C60.3537 41.4375 60.2014 42.3011 60.1275 42.7258C59.3937 46.9392 58.9526 49.43 58.8861 49.735C58.8422 49.9368 58.7483 50.5337 58.6773 51.0614C58.5065 52.3327 58.491 54.9425 58.6475 56.0567C59.1861 59.8906 60.8318 62.4858 63.6094 63.8811C64.2603 64.2081 64.5759 64.3327 65.2602 64.5324C66.0759 64.7705 67.2203 64.9632 68.2131 65.0297C68.7633 65.0666 73.6329 65.0877 81.5939 65.0877H94.1095L94.147 64.9043C94.1676 64.8033 94.2731 64.2509 94.3814 63.6766C94.5729 62.6614 94.8508 61.2134 95.4215 58.258C95.6675 56.9837 95.9916 55.2834 96.4112 53.0652C96.4845 52.6771 96.6742 51.6866 96.8326 50.8639C97.4718 47.5438 97.7351 46.1483 97.7351 46.0807C97.7351 46.024 96.0146 46.0097 89.172 46.0093C80.789 46.0089 80.599 46.0066 80.1356 45.8954C78.4896 45.5008 77.62 44.2731 77.7192 42.4843C77.7365 42.1726 77.8654 41.2572 78.0057 40.45C78.2766 38.8917 78.2875 38.8282 79.3357 32.7172C79.7085 30.5441 80.0527 28.5503 80.1007 28.2864C80.1486 28.0225 80.341 26.9049 80.5281 25.8029C80.7153 24.7008 80.9309 23.6086 81.0074 23.3758C81.4867 21.9168 82.5903 20.889 84.171 20.4297L84.6154 20.3006L93.6143 20.2846C98.5637 20.2759 102.632 20.2496 102.656 20.2262C102.702 20.1799 102.752 19.9413 103.097 18.1265C103.223 17.4591 103.439 16.3288 103.576 15.6148C103.713 14.9008 103.927 13.7832 104.051 13.1312C104.175 12.4793 104.521 10.6759 104.818 9.12374C105.116 7.57154 105.408 6.04755 105.466 5.73711C105.525 5.42667 105.79 4.03454 106.056 2.64349C106.323 1.25249 106.526 0.0904268 106.508 0.0611889C106.476 0.0101638 77.6446 -0.00693866 77.3924 0.0439172ZM114.355 0.0627685C114.326 0.10877 113.825 2.70146 113.221 5.93467C113.142 6.35376 113.042 6.87446 112.998 7.09176C112.954 7.30907 112.839 7.90597 112.743 8.41819C112.647 8.93042 112.496 9.73051 112.408 10.1962C112.319 10.6618 112.169 11.4492 112.075 11.9459C111.98 12.4426 111.685 14.0047 111.418 15.4172C111.151 16.8297 110.758 18.8998 110.543 20.0174C110.329 21.135 110.14 22.1256 110.124 22.2187C110.107 22.3118 109.98 22.9849 109.841 23.7144C109.334 26.3837 108.39 31.3741 108.315 31.7859C108.272 32.0187 108.108 32.8823 107.949 33.705C107.79 34.5277 107.586 35.5944 107.496 36.0756C107.06 38.4081 106.336 42.2366 106.087 43.5262C105.934 44.3178 105.669 45.7021 105.499 46.6024C105.329 47.5027 105.1 48.7155 104.99 49.2976C104.573 51.4953 104.374 52.544 103.913 54.9843C103.653 56.3657 103.351 57.9532 103.243 58.512C103.135 59.0708 103.032 59.6042 103.015 59.6973C102.998 59.7905 102.919 60.2096 102.839 60.6287C102.226 63.8584 102.024 64.9485 102.024 65.0133C102.024 65.0751 103.503 65.0856 110.559 65.0738L119.094 65.0595L119.323 63.9024C119.45 63.266 119.611 62.4405 119.681 62.068C119.752 61.6954 120.037 60.2096 120.315 58.766C120.593 57.3225 120.945 55.4937 121.096 54.7021C121.248 53.9104 121.502 52.5897 121.661 51.767C121.82 50.9443 122.077 49.6108 122.232 48.8037C122.387 47.9965 122.602 46.879 122.71 46.3202C122.818 45.7614 123.069 44.4533 123.268 43.4133C123.467 42.3733 123.706 41.1287 123.801 40.6476C123.895 40.1664 124.048 39.3814 124.142 38.9032C124.291 38.1421 124.37 37.8407 124.37 38.0335C124.37 38.0653 124.395 38.406 124.425 38.7909C124.456 39.1756 124.558 40.5573 124.653 41.8611C124.807 43.998 124.925 45.6139 125.498 53.4321C125.885 58.7161 126.123 61.9705 126.206 63.1404C126.254 63.8234 126.312 64.5346 126.333 64.7208L126.373 65.0595L131.082 65.0739C134.031 65.083 135.81 65.0681 135.844 65.0343C135.915 64.9631 135.753 65.379 138.391 58.512C138.618 57.9222 138.932 57.1094 139.089 56.7058C139.246 56.3022 139.632 55.299 139.946 54.4763C140.259 53.6536 140.791 52.2693 141.127 51.4001C141.463 50.5309 141.947 49.2736 142.201 48.6061C142.456 47.9387 142.882 46.8338 143.148 46.1508C143.413 45.4679 143.711 44.6932 143.81 44.4293C144.108 43.6303 145.724 39.4313 146.059 38.5874C146.169 38.308 146.261 38.1274 146.262 38.186C146.263 38.2446 146.011 39.6416 145.702 41.2904C145.394 42.9392 144.771 46.2694 144.318 48.6908C143.866 51.1122 143.37 53.7538 143.218 54.561C143.065 55.3681 142.583 57.9462 142.146 60.29C141.709 62.6338 141.33 64.6585 141.304 64.7893C141.278 64.92 141.27 65.0407 141.287 65.0574C141.303 65.0741 144.944 65.0877 149.376 65.0877H157.435L157.461 64.9607C157.602 64.276 157.99 62.2823 158.514 59.5562C158.606 59.075 158.706 58.567 158.735 58.4273C158.765 58.2876 158.892 57.6273 159.019 56.9598C159.146 56.2924 159.322 55.378 159.411 54.9278C159.5 54.4777 159.691 53.4998 159.834 52.7547C159.978 52.0097 160.155 51.0953 160.228 50.7228C160.301 50.3502 160.464 49.5121 160.589 48.8601C160.932 47.0843 161.477 44.2637 161.725 42.99C161.846 42.3691 162.075 41.188 162.233 40.3653C162.543 38.7565 163.023 36.2849 163.645 33.0841C163.859 31.982 164.315 29.6199 164.659 27.8348C165.003 26.0498 165.321 24.4115 165.365 24.1942C165.41 23.9769 165.586 23.0752 165.756 22.1905C165.926 21.3057 166.233 19.7182 166.438 18.6627C166.86 16.4836 167.332 14.0471 167.824 11.4944C168.01 10.532 168.198 9.56682 168.243 9.34951C168.287 9.13221 168.427 8.40831 168.555 7.74087C168.682 7.07342 168.898 5.95583 169.035 5.25734C169.755 1.58161 170.022 0.148394 169.996 0.0818472C169.955 -0.026299 147.493 -0.0277666 147.403 0.0803796C147.37 0.120116 147.217 0.46939 147.063 0.856481C146.741 1.66797 145.463 4.84254 144.826 6.41444C144.587 7.00428 143.896 8.71876 143.291 10.2244C142.685 11.73 141.897 13.6858 141.54 14.5706C141.183 15.4553 140.579 16.9539 140.198 17.9007C139.817 18.8476 139.08 20.6764 138.56 21.9647C138.041 23.253 137.491 24.6246 137.339 25.0127C137.186 25.4007 137.012 25.8259 136.951 25.9575C136.89 26.0891 136.84 26.2066 136.84 26.2187C136.84 26.2308 136.796 26.339 136.742 26.4592C136.647 26.6683 136.642 26.1018 136.615 13.357L136.587 0.0362967L125.488 0.0220721C118.332 0.0128717 114.376 0.0273218 114.355 0.0627685ZM178.176 0.0785158C178.162 0.117406 178.048 0.695277 177.921 1.36272C177.795 2.03017 177.665 2.70326 177.634 2.85848C177.602 3.0137 177.414 3.99159 177.215 5.03157C177.017 6.07154 176.763 7.39233 176.651 7.96664C176.539 8.54096 176.386 9.32835 176.312 9.7164C176.238 10.1044 176.101 10.8156 176.009 11.2968C175.917 11.778 175.508 13.8989 175.101 16.0099C174.693 18.1209 174.297 20.1782 174.219 20.5818C174.142 20.9854 173.966 21.8871 173.829 22.5856C173.692 23.2841 173.426 24.6683 173.238 25.6618C173.049 26.6552 172.783 28.0394 172.647 28.7379C172.51 29.4364 172.256 30.7572 172.082 31.673C171.908 32.5888 171.729 33.5159 171.684 33.7332C171.604 34.1267 171.219 36.1228 170.728 38.7003C170.586 39.4453 170.433 40.2327 170.389 40.45C170.344 40.6673 170.179 41.5182 170.021 42.3409C169.864 43.1635 169.597 44.5478 169.429 45.4171C169.26 46.2863 169.032 47.4801 168.921 48.0699C168.811 48.6598 168.684 49.3201 168.639 49.5375C168.594 49.7548 168.429 50.6057 168.271 51.4283C168.113 52.251 167.859 53.5718 167.706 54.3634C167.554 55.155 167.274 56.6028 167.086 57.5807C166.897 58.5586 166.654 59.8159 166.546 60.3747C165.986 63.2631 165.676 64.9113 165.676 64.9947C165.676 65.0809 166.998 65.0877 183.706 65.0877H201.737L201.791 64.9459C201.82 64.8678 201.869 64.6583 201.898 64.4802C201.966 64.0749 202.72 60.1189 202.831 59.5844C202.876 59.3671 203.068 58.3765 203.258 57.3831C203.447 56.3897 203.714 55.0054 203.851 54.307C203.988 53.6085 204.28 52.0972 204.499 50.9486C204.719 49.7999 205.026 48.1997 205.182 47.3926C205.337 46.5854 205.49 45.7892 205.522 45.6231C205.553 45.4571 205.565 45.2857 205.548 45.2421C205.523 45.1748 204.178 45.1631 196.48 45.1631H187.442L187.474 44.9514C187.504 44.7535 188.435 39.8733 188.597 39.0671L188.671 38.7003L197.77 38.686C202.774 38.6781 206.869 38.6604 206.869 38.6465C206.869 38.6231 207.132 37.2553 207.26 36.6118C207.291 36.4566 207.509 35.3263 207.744 34.1001C207.979 32.8739 208.219 31.6293 208.278 31.3344C208.337 31.0394 208.516 30.1123 208.676 29.2742C208.835 28.436 209.078 27.1819 209.215 26.4873C209.352 25.7928 209.465 25.1641 209.465 25.0903V24.9562H200.408C192.77 24.9562 191.351 24.9441 191.351 24.8788C191.351 24.8362 191.466 24.2075 191.607 23.4818C192.109 20.8998 192.485 19 192.514 18.9026C192.542 18.8091 193.023 18.8038 201.598 18.8038H210.652L210.7 18.6768C210.727 18.607 210.816 18.1942 210.899 17.7596C211.165 16.3642 211.604 14.085 211.975 12.1717C212.173 11.1472 212.452 9.69947 212.595 8.95441C212.737 8.20935 213.004 6.82507 213.188 5.87822C213.371 4.93138 213.613 3.6741 213.725 3.08426C213.837 2.49442 214.002 1.63083 214.092 1.16517C214.182 0.699511 214.264 0.255016 214.273 0.177406L214.289 0.0362967L196.244 0.0220721C181.837 0.0107833 178.195 0.0221285 178.176 0.0785158ZM35.0905 20.1867C35.0703 20.2178 34.6916 21.2083 34.2488 22.388C33.8061 23.5677 33.358 24.7615 33.2531 25.0409C33.1482 25.3203 32.9635 25.8156 32.8426 26.1415C32.5436 26.9478 32.3889 27.359 32.1099 28.0882C31.9794 28.4292 31.8399 28.7975 31.8 28.9066C31.5931 29.4711 31.1029 30.78 29.9417 33.8685C29.1903 35.8672 28.6809 37.2984 28.7104 37.3279C28.7652 37.3828 35.0676 37.3676 35.1226 37.3125C35.1408 37.2943 35.1492 33.4209 35.1414 28.7048C35.1335 23.9888 35.1106 20.1557 35.0905 20.1867Z" fill="white"/>
</svg>
