<svg width="96" height="87" viewBox="0 0 96 87" fill="none" xmlns="http://www.w3.org/2000/svg">
<path d="M59.3096 50.0459C62.3631 50.0588 64.3575 52.9935 64.3066 55.6914C64.2557 58.3893 62.1851 61.1123 59.1992 61.125L43.1895 61.2012C41.9188 61.2054 41.1565 62.2269 41.2031 63.3281C41.2457 64.2471 42.0037 65.2129 43.2529 65.2129H64.252L78.8604 55.166L78.8516 55.1748C81.3081 53.4849 83.9888 52.3033 86.9238 53.3154C88.7662 54.154 89.9652 55.8647 90.2744 57.7197C90.609 59.7231 89.5965 61.591 87.8262 62.9082L64.5361 80.2012C61.1098 82.7466 57.8398 85.0632 53.5029 85.6309C49.6784 86.2069 45.8536 86.1562 41.9316 85.7539L16.752 83.166L16.7139 60.2061C18.7215 55.5514 22.542 52.1589 27.5312 50.9307C30.3095 50.2192 33.0793 49.9525 36.0186 49.9609L59.3096 50.0459ZM12.2822 54.4463V84.166L0.00390625 84.1318L0 54.0479L12.2822 54.4463ZM95.293 0.233398V40.6895L23.6719 40.6172V0L95.293 0.233398ZM27.3906 36.8857L91.4932 36.8691V3.70605H27.3906V36.8857ZM82.9082 6.80664C83.6664 9.60605 85.5813 11.4826 88.4824 12.1221L88.5332 28.4453C85.8311 29.0764 83.7602 30.715 82.9131 33.8066H82.9082L36.0518 33.8242C35.2513 31.0247 33.278 28.996 30.3896 28.4834V12.1602C33.2102 11.546 35.2392 9.67378 36.0693 6.80664H82.9082ZM70.4648 17.8984C69.1475 12.041 63.078 7.76783 56.6953 9.39844C50.2661 11.0419 47.0599 17.3567 48.5762 23.1719C50.0924 28.9869 56.3056 32.765 62.2393 31.249C68.1942 29.7243 71.7821 23.756 70.4648 17.8984ZM60.7314 11.7148C60.1851 14.256 62.4887 13.1379 64.2549 14.9971C63.8017 15.5223 63.3186 16.0354 62.6494 16.4717C61.2306 15.6881 59.7018 15.2854 58.1348 15.7852C57.2582 16.0646 56.8978 16.92 57.0332 17.6104C57.4398 19.6941 61.1838 18.2166 63.5557 19.8936C64.8051 20.7787 65.1314 22.3329 64.8223 23.6035C63.9244 27.3221 59.5924 25.8696 60.8584 28.8086L60.8623 28.8135H58.2998C58.6979 25.7896 55.4373 27.4026 53.8701 24.752C54.5012 24.1971 55.0645 23.7353 55.7549 23.4219C57.3261 24.7515 59.3124 25.0356 61.1885 24.3877C62.0227 24.0997 62.3154 23.3413 62.2646 22.7061C62.091 20.4401 58.325 21.8076 55.9023 20.3506C54.5304 19.5246 54.2592 17.9617 54.543 16.5938C55.2208 13.3499 59.0027 14.3281 58.2363 11.7236C59.2232 11.7618 59.7912 11.7657 60.7314 11.7148ZM81.1123 19.085C80.4812 17.8228 78.9693 17.1742 77.4785 17.9746V17.9707C75.8606 18.839 75.7382 20.7152 76.5811 21.8799C77.3561 22.9514 78.8258 23.2691 80.0117 22.6592C81.3371 21.9772 81.7432 20.347 81.1123 19.085ZM42.5664 19.0889C41.9269 17.8267 40.4359 17.1663 38.9365 17.9668C37.306 18.8393 37.1707 20.6936 38.0303 21.8838C38.7969 22.9426 40.262 23.273 41.4648 22.6504C42.7735 21.9769 43.2059 20.351 42.5664 19.0889Z" fill="url(#paint0_linear_174_361)"/>
<defs>
<linearGradient id="paint0_linear_174_361" x1="47.6464" y1="0" x2="47.6464" y2="105.766" gradientUnits="userSpaceOnUse">
<stop stop-color="white"/>
<stop offset="1" stop-color="#003B73"/>
</linearGradient>
</defs>
</svg>
