<svg width="83" height="83" viewBox="0 0 83 83" fill="none" xmlns="http://www.w3.org/2000/svg">
<path d="M50.0703 77.6007C50.0701 80.2681 47.9076 82.4298 45.2402 82.4298H37.1904C34.523 82.4298 32.3605 80.2681 32.3604 77.6007H50.0703ZM41.2158 60.6007C43.1212 62.9026 45.984 64.3797 49.1826 64.3986H49.2646C51.2029 64.3986 53.1162 64.0242 54.8994 63.3165V67.1359C54.8993 70.2428 52.3716 72.7707 49.2646 72.7707H33.165C30.0582 72.7705 27.5304 70.2427 27.5303 67.1359V63.3165C29.3135 64.0241 31.2268 64.3985 33.165 64.3986H33.2559C36.4501 64.3797 39.3112 62.9027 41.2158 60.6007ZM33.2275 0.000143108C36.3201 0.018186 38.7996 2.57263 38.7998 5.66518V29.7912C36.7804 28.2718 34.2716 27.3693 31.5557 27.3693C30.222 27.3693 29.1407 28.4507 29.1406 29.7843C29.1406 31.118 30.222 32.1994 31.5557 32.1994C35.5503 32.1995 38.7998 35.4498 38.7998 39.4445V53.9035C38.7997 56.9963 36.3202 59.5503 33.2275 59.5685C33.2069 59.5687 33.1858 59.5685 33.165 59.5685C28.144 59.5683 23.9382 56.0142 22.9307 51.2892C18.2056 50.2817 14.6504 46.075 14.6504 41.0539C14.6504 39.5226 14.9881 38.0329 15.6387 36.6574C13.968 34.7686 13.041 32.3554 13.041 29.7843C13.041 27.2135 13.9683 24.801 15.6387 22.9123C14.9879 21.5366 14.6504 20.0463 14.6504 18.5148C14.6504 13.4936 18.2056 9.28696 22.9307 8.27944C23.9382 3.55455 28.1441 0.000299396 33.165 0.000143108C33.1858 0.000143108 33.2069 -0.000178885 33.2275 0.000143108ZM49.2646 0.000143108C54.2858 0.000143108 58.4924 3.55441 59.5 8.27944C64.2251 9.28696 67.7793 13.4936 67.7793 18.5148C67.7793 20.0463 67.4416 21.5366 66.791 22.9123C68.4616 24.801 69.3896 27.2133 69.3896 29.7843C69.3896 32.3554 68.4617 34.7686 66.791 36.6574C67.4415 38.0329 67.7792 39.5225 67.7793 41.0539C67.7793 46.075 64.2251 50.2817 59.5 51.2892C58.4925 56.0143 54.2858 59.5685 49.2646 59.5685C49.2441 59.5685 49.2235 59.5688 49.2031 59.5685C46.1104 59.5505 43.63 56.9961 43.6299 53.9035V39.4445C43.6299 35.4497 46.8802 32.1994 50.875 32.1994C52.2087 32.1993 53.29 31.118 53.29 29.7843C53.29 28.4507 52.2086 27.3693 50.875 27.3693C48.1588 27.3693 45.6494 28.2717 43.6299 29.7912V5.66518C43.6301 2.57246 46.1105 0.0183349 49.2031 0.000143108C49.2235 -1.4915e-05 49.2441 0.000143113 49.2646 0.000143108ZM7.64746 41.3781C8.80245 40.7112 10.2794 41.1069 10.9463 42.2619C11.613 43.4168 11.2174 44.8939 10.0625 45.5607L5.87988 47.9757C4.72504 48.6425 3.24802 48.2466 2.58105 47.0919C1.91421 45.937 2.30986 44.46 3.46484 43.7931L7.64746 41.3781ZM71.4844 42.2619C72.1512 41.1069 73.6282 40.7112 74.7832 41.3781L78.9658 43.7931C80.1207 44.46 80.5164 45.9371 79.8496 47.0919C79.1827 48.2467 77.7057 48.6424 76.5508 47.9757L72.3682 45.5607C71.2132 44.8938 70.8176 43.4168 71.4844 42.2619ZM7.24512 27.3693C8.5787 27.3694 9.66009 28.4507 9.66016 29.7843C9.66016 31.118 8.57874 32.1993 7.24512 32.1994H2.41504C1.08136 32.1993 0 31.118 0 29.7843C6.62851e-05 28.4507 1.0814 27.3693 2.41504 27.3693H7.24512ZM80.0156 27.3693C81.3491 27.3695 82.4306 28.4508 82.4307 29.7843C82.4307 31.1179 81.3492 32.1992 80.0156 32.1994H75.1855C73.8519 32.1994 72.7705 31.118 72.7705 29.7843C72.7706 28.4507 73.8519 27.3693 75.1855 27.3693H80.0156ZM2.58105 12.4777C3.2479 11.3227 4.7249 10.927 5.87988 11.5939L10.0625 14.008C11.2174 14.6747 11.6129 16.1518 10.9463 17.3068C10.2795 18.4617 8.80242 18.8582 7.64746 18.1915L3.46484 15.7765C2.3099 15.1097 1.9143 13.6327 2.58105 12.4777ZM76.5508 11.5939C77.7058 10.927 79.1828 11.3227 79.8496 12.4777C80.5162 13.6326 80.1207 15.1097 78.9658 15.7765L74.7832 18.1915C73.6282 18.8584 72.1512 18.4618 71.4844 17.3068C70.8177 16.1518 71.2132 14.6748 72.3682 14.008L76.5508 11.5939Z" fill="url(#paint0_linear_367_277)"/>
<defs>
<linearGradient id="paint0_linear_367_277" x1="38.4386" y1="9.55815e-08" x2="38.4386" y2="130.92" gradientUnits="userSpaceOnUse">
<stop stop-color="white"/>
<stop offset="1" stop-color="#003B73"/>
</linearGradient>
</defs>
</svg>
