<svg width="87" height="87" viewBox="0 0 87 87" fill="none" xmlns="http://www.w3.org/2000/svg">
<path d="M56.2695 0C62.9777 0 68.4062 5.42854 68.4062 12.1367V21.4932C64.6991 19.7279 60.5945 18.7568 56.2695 18.7568C40.47 18.757 27.583 31.6438 27.583 47.4434C27.583 63.2429 40.47 76.1298 56.2695 76.1299C60.5946 76.1299 64.6991 75.1589 68.4062 73.3936V73.9229C68.4062 80.6311 62.9778 86.0596 56.2695 86.0596H12.1367C5.42848 86.0596 0 80.6311 0 73.9229V12.1367C7.75599e-05 5.42854 5.42853 0 12.1367 0H56.2695ZM56.2695 25.3809C68.4547 25.3809 78.3359 35.2631 78.3359 47.4482C78.3359 51.1905 77.317 54.6637 75.6709 57.7529L85.0889 67.1709H85.084C86.3771 68.464 86.3771 70.5604 85.084 71.8535C84.4397 72.5021 83.5924 72.8242 82.7451 72.8242C81.8978 72.8242 81.0506 72.4978 80.4062 71.8535L71.7256 63.1729C67.7448 67.0875 62.2937 69.5146 56.2695 69.5146C44.0846 69.5145 34.2034 59.6331 34.2031 47.4482C34.2031 35.2632 44.0845 25.381 56.2695 25.3809ZM67.7354 41.0312C66.6321 39.575 64.5584 39.2833 63.0977 40.3818L53.3262 47.7432L49.4336 44.7998C47.9816 43.7009 45.9027 43.9879 44.7949 45.4443C43.6918 46.9007 43.9788 48.9748 45.4395 50.0781L51.3223 54.5352C51.9135 54.9808 52.6153 55.206 53.3213 55.2061C54.023 55.2061 54.725 54.9857 55.3164 54.54L67.0869 45.6738V45.6689C68.5431 44.5656 68.8341 42.492 67.7354 41.0312ZM16.5498 39.7197C14.7404 39.7198 13.2402 41.2209 13.2402 43.0303C13.2403 44.8396 14.7405 46.3398 16.5498 46.3398H20.9629C22.7723 46.3398 24.2733 44.8396 24.2734 43.0303C24.2734 41.2208 22.7724 39.7197 20.9629 39.7197H16.5498ZM16.5498 26.4805C14.7404 26.4805 13.2403 27.9807 13.2402 29.79C13.2402 31.5995 14.7404 33.1005 16.5498 33.1006H25.377C27.1862 33.1004 28.6865 31.5994 28.6865 29.79C28.6865 27.9807 27.1862 26.4807 25.377 26.4805H16.5498ZM16.5498 13.2402C14.7405 13.2403 13.2404 14.7406 13.2402 16.5498C13.2402 18.3592 14.7404 19.8603 16.5498 19.8604H38.6162C40.4257 19.8604 41.9268 18.3593 41.9268 16.5498C41.9266 14.7405 40.4255 13.2402 38.6162 13.2402H16.5498Z" fill="url(#paint0_linear_173_245)"/>
<defs>
<linearGradient id="paint0_linear_173_245" x1="43.0269" y1="0" x2="43.0269" y2="105.766" gradientUnits="userSpaceOnUse">
<stop stop-color="white"/>
<stop offset="1" stop-color="#003B73"/>
</linearGradient>
</defs>
</svg>
