<svg width="83" height="84" viewBox="0 0 83 84" fill="none" xmlns="http://www.w3.org/2000/svg">
<path d="M80.7988 77.3898C81.7086 77.3898 82.4463 78.1276 82.4463 79.0373V81.9562C82.4461 82.8658 81.7085 83.6027 80.7988 83.6027H1.64746C0.737821 83.6027 0.000142482 82.8658 0 81.9562V79.0373C0 78.1276 0.737733 77.3898 1.64746 77.3898H80.7988ZM76.0537 69.5764C76.9626 69.5764 77.6981 70.3112 77.6982 71.2199V74.7219H4.75781V71.2199C4.75799 70.3112 5.49355 69.5764 6.40234 69.5764H76.0537ZM24.8076 33.6476C24.8075 34.3961 24.1928 35.0109 23.4443 35.0109H21.627V61.9045H23.4443C24.1929 61.9045 24.8076 62.5059 24.8076 63.2678V66.9025H9.35645V63.2678C9.35645 62.506 9.97118 61.9045 10.7197 61.9045H12.5381V35.0109H10.7197C9.97125 35.0109 9.35655 34.396 9.35645 33.6476V30.0119H24.8076V33.6476ZM48.9473 33.6476C48.9472 34.3961 48.3324 35.0109 47.584 35.0109H45.7666V61.9045H47.584C48.3325 61.9045 48.9473 62.5059 48.9473 63.2678V66.9025H33.4961V63.2678C33.4961 62.506 34.1109 61.9045 34.8594 61.9045H36.6777V35.0109H34.8594C34.111 35.0109 33.4962 34.396 33.4961 33.6476V30.0119H48.9473V33.6476ZM73.0859 33.6476C73.0858 34.3961 72.4711 35.0109 71.7227 35.0109H69.9053V61.9045H71.7227C72.4712 61.9045 73.0859 62.5059 73.0859 63.2678V66.9025H57.6348V63.2678C57.6348 62.506 58.2496 61.9045 58.998 61.9045H60.8164V35.0109H58.998C58.2496 35.0109 57.6349 34.396 57.6348 33.6476V30.0119H73.0859V33.6476ZM39.5967 0.418148C40.6177 -0.139275 41.8521 -0.139491 42.873 0.418148L78.208 19.7219C78.7341 20.0094 79.0614 20.5608 79.0615 21.1603V25.6994C79.0613 26.6048 78.3273 27.3389 77.4219 27.339H5.03418C4.12876 27.3389 3.39479 26.6048 3.39453 25.6994V21.1613C3.39453 20.5617 3.72186 20.0094 4.24805 19.7219L39.5967 0.418148ZM41.2334 9.33416C38.2728 9.33418 35.8662 11.7417 35.8662 14.7023C35.8663 17.6628 38.2729 20.0695 41.2334 20.0695C44.1819 20.0695 46.577 17.6628 46.5771 14.7023C46.5771 11.7417 44.182 9.33416 41.2334 9.33416Z" fill="url(#paint0_linear_367_308)"/>
<defs>
<linearGradient id="paint0_linear_367_308" x1="38.4459" y1="9.69415e-08" x2="38.4459" y2="132.783" gradientUnits="userSpaceOnUse">
<stop stop-color="white"/>
<stop offset="1" stop-color="#003B73"/>
</linearGradient>
</defs>
</svg>
