<svg width="78" height="78" viewBox="0 0 78 78" fill="none" xmlns="http://www.w3.org/2000/svg">
<path d="M44.095 0C45.1409 0 46.0532 0.711895 46.307 1.72656L47.7181 7.37305C48.5285 7.59776 49.3025 7.84292 50.0491 8.1123L54.4945 4.38672C55.296 3.71498 56.452 3.67528 57.2982 4.29004L65.9388 10.5674C66.7848 11.182 67.1033 12.2937 66.7122 13.2637L64.5345 18.665C65.0248 19.293 65.4994 19.9501 65.9554 20.6318L71.7738 20.2295C72.8168 20.1575 73.7748 20.8043 74.098 21.7988L77.3988 31.9561C77.7219 32.9507 77.3263 34.038 76.4398 34.5928L71.515 37.6738C71.5361 38.0765 71.5491 38.4828 71.5491 38.8975C71.5491 39.312 71.5361 39.7177 71.515 40.1201L76.4398 43.2021C77.3263 43.7568 77.7217 44.8434 77.3988 45.8379L74.098 55.9961C73.7749 56.9903 72.8167 57.6375 71.7738 57.5654L65.9564 57.1621C65.5002 57.8442 65.025 58.5016 64.5345 59.1299L66.7132 64.5303C67.1044 65.5002 66.7847 66.6118 65.9388 67.2266L57.2982 73.5049C56.452 74.1193 55.296 74.0789 54.4945 73.4072L50.0491 69.6816C49.3024 69.9512 48.5284 70.1972 47.7181 70.4219L46.307 76.0684C46.0533 77.0828 45.1408 77.7949 44.095 77.7949H33.4154C32.3696 77.7949 31.4581 77.0827 31.2044 76.0684L29.7923 70.4219C28.9822 70.1972 28.2089 69.9511 27.4622 69.6816L23.0159 73.4072C22.2143 74.079 21.0584 74.1196 20.2122 73.5049L11.5716 67.2266C10.7259 66.6117 10.4071 65.5001 10.7982 64.5303L12.9759 59.1299C12.4854 58.5015 12.0111 57.8442 11.555 57.1621L5.73762 57.5654C4.69436 57.6376 3.73572 56.9905 3.41243 55.9961L0.111646 45.8379C-0.211296 44.8434 0.18417 43.7568 1.07063 43.2021L5.99544 40.1201C5.97432 39.7174 5.96126 39.3118 5.96126 38.8975C5.96126 38.483 5.97432 38.0765 5.99544 37.6738L1.07063 34.5918C0.184133 34.0371 -0.211376 32.9506 0.111646 31.9561L3.41243 21.7988C3.73561 20.8042 4.69439 20.1572 5.73762 20.2295L11.555 20.6318C12.011 19.95 12.4856 19.293 12.9759 18.665L10.7982 13.2637C10.407 12.2939 10.7257 11.1822 11.5716 10.5674L20.2122 4.29004C21.0584 3.67531 22.2143 3.71508 23.0159 4.38672L27.4622 8.1123C28.2085 7.84301 28.9821 7.5977 29.7923 7.37305L31.2044 1.72656C31.458 0.711895 32.3695 0 33.4154 0H44.095ZM47.8714 45.7344C46.6129 45.7346 45.5931 46.7551 45.5931 48.0137V50.293H22.0413C20.7828 50.2932 19.763 51.3137 19.763 52.5723C19.7632 53.8306 20.783 54.8504 22.0413 54.8506H45.5931V57.1299C45.5931 58.3884 46.6129 59.4089 47.8714 59.4092C49.1301 59.4092 50.1507 58.3886 50.1507 57.1299V54.8506H55.4691C56.7276 54.8505 57.7482 53.8307 57.7484 52.5723C57.7484 51.3136 56.7277 50.293 55.4691 50.293H50.1507V48.0137C50.1507 46.755 49.1301 45.7344 47.8714 45.7344ZM31.1585 32.0596C29.8998 32.0596 28.8792 33.0802 28.8792 34.3389V36.6182H22.0413C20.7828 36.6184 19.763 37.6389 19.763 38.8975C19.7632 40.1559 20.7829 41.1756 22.0413 41.1758H28.8792V43.4551C28.8792 44.7138 29.8998 45.7344 31.1585 45.7344C32.4171 45.7342 33.4378 44.7137 33.4378 43.4551V41.1758H55.4691C56.7276 41.1757 57.7482 40.1559 57.7484 38.8975C57.7484 37.6388 56.7277 36.6182 55.4691 36.6182H33.4378V34.3389C33.4378 33.0803 32.4171 32.0597 31.1585 32.0596ZM47.8714 18.3848C46.6129 18.385 45.5931 19.4055 45.5931 20.6641V22.9434H22.0413C20.7828 22.9436 19.763 23.9641 19.763 25.2227C19.7632 26.4811 20.7829 27.5017 22.0413 27.502H45.5931V29.7803C45.5931 31.0388 46.6129 32.0593 47.8714 32.0596C49.1301 32.0596 50.1507 31.039 50.1507 29.7803V27.502H55.4691C56.7276 27.5019 57.7482 26.4812 57.7484 25.2227C57.7484 23.964 56.7277 22.9434 55.4691 22.9434H50.1507V20.6641C50.1507 19.4054 49.1301 18.3848 47.8714 18.3848Z" fill="url(#paint0_linear_367_265)"/>
<defs>
<linearGradient id="paint0_linear_367_265" x1="38.7553" y1="0" x2="38.7553" y2="95.6087" gradientUnits="userSpaceOnUse">
<stop stop-color="white"/>
<stop offset="1" stop-color="#003B73"/>
</linearGradient>
</defs>
</svg>
