<svg width="87" height="87" viewBox="0 0 87 87" fill="none" xmlns="http://www.w3.org/2000/svg">
<path d="M86.2568 66.875C86.2568 71.9842 82.1004 76.1416 76.9912 76.1416H62.3174L64.1143 86.249H22.1426L23.9395 76.1416H9.2666C4.15742 76.1416 0 71.9842 0 66.875V64.6855H86.2568V66.875ZM22.4248 11.7861C22.1361 13.1817 21.9842 14.6168 21.9795 16.0752C21.9634 21.0516 23.7024 25.8945 26.876 29.7109C29.7829 33.2067 31.5002 37.5492 31.7109 41.9385C31.7117 41.9599 31.7566 43.1606 31.7568 43.2373C31.7568 49.5207 36.8586 54.6328 43.1289 54.6328C49.399 54.6326 54.5 49.5206 54.5 43.2373C54.5002 43.1642 54.54 41.918 54.54 41.918C54.7153 37.5522 56.4093 33.2479 59.3096 29.7969C62.5135 25.9849 64.2773 21.1358 64.2773 16.1445C64.2773 14.6509 64.1217 13.1932 63.8271 11.7861H86.2568V59.6309H0V11.7861H22.4248ZM49.3477 44.3438C48.8246 47.3145 46.2363 49.579 43.1289 49.5791C40.0215 49.5791 37.4323 47.3145 36.9092 44.3438H49.3477ZM43.1289 0C52.0033 0.000269249 59.2236 7.24329 59.2236 16.1455C59.2235 19.9489 57.8801 23.6423 55.4404 26.5449C52.359 30.2113 50.3688 34.664 49.7109 39.29H36.5234C35.8386 34.653 33.8373 30.177 30.7627 26.4795C28.3462 23.5732 27.0219 19.8834 27.0342 16.0908C27.0483 11.781 28.7276 7.73619 31.7637 4.70215C34.7981 1.66972 38.8348 0 43.1289 0ZM43.1289 5.63379C37.0074 5.63379 32.0273 10.6243 32.0273 16.7588H37.0811C37.0811 13.4113 39.7942 10.6875 43.1289 10.6875V5.63379Z" fill="url(#paint0_linear_158_17)"/>
<defs>
<linearGradient id="paint0_linear_158_17" x1="40.2228" y1="1.0001e-07" x2="40.2228" y2="136.986" gradientUnits="userSpaceOnUse">
<stop stop-color="white"/>
<stop offset="1" stop-color="#003B73"/>
</linearGradient>
</defs>
</svg>
