<svg width="68" height="87" viewBox="0 0 68 87" fill="none" xmlns="http://www.w3.org/2000/svg">
<path d="M39.9551 43.0303C55.2267 43.0303 67.618 55.4209 67.6182 70.6924V86.0596H0V70.6924C0.000203309 55.421 12.3886 43.0304 27.6602 43.0303C29.6601 43.0295 31.128 44.9083 30.6436 46.8486L24.917 69.748L33.8086 78.6377L42.6982 69.748L36.9746 46.8486C36.4904 44.9094 37.9563 43.0313 39.9551 43.0303ZM33.8086 0C43.9571 0 52.251 8.29391 52.251 18.4424C52.2509 28.5908 43.9571 36.8809 33.8086 36.8809C23.6603 36.8806 15.3672 28.5907 15.3672 18.4424C15.3672 8.29407 23.6603 0.00025379 33.8086 0Z" fill="url(#paint0_linear_159_138)"/>
<defs>
<linearGradient id="paint0_linear_159_138" x1="33.8091" y1="0" x2="33.8091" y2="105.766" gradientUnits="userSpaceOnUse">
<stop stop-color="white"/>
<stop offset="1" stop-color="#003B73"/>
</linearGradient>
</defs>
</svg>
