<svg width="67" height="89" viewBox="0 0 67 89" fill="none" xmlns="http://www.w3.org/2000/svg">
<path d="M51.8634 10.6504C53.0883 9.54223 54.313 9.89223 55.2462 10.8838C56.8793 12.6919 58.5712 14.5585 59.796 16.6582C61.7791 20.0411 63.3539 23.6577 65.1036 27.1572C65.3952 27.6821 65.5119 28.3818 65.92 28.79C67.3782 30.5398 66.8531 32.173 65.6866 33.6895C63.0619 37.1892 60.3793 40.6895 57.6378 44.1309C54.3131 48.2722 50.9298 52.2969 47.4884 56.3799C46.7886 57.1964 46.5551 58.0127 46.6134 59.0625C47.1384 66.7619 47.6051 74.4615 48.13 82.1025C48.2466 83.5607 47.7799 84.7276 46.6134 85.3691C44.9803 86.244 43.2303 87.1767 41.4806 87.585C34.248 89.2181 27.0152 89.1021 19.8409 87.294C18.2078 86.8857 16.6329 85.9516 15.1163 85.1934C14.2415 84.7268 13.8908 83.9108 13.8908 82.8027C13.9491 77.1449 13.9491 71.4867 13.8908 65.7705C13.8324 63.1458 12.6076 60.9295 10.9161 59.1797C8.34969 56.5549 6.13358 53.8129 5.20032 50.2549C4.50039 47.6301 3.79993 44.947 3.15833 42.3223C3.04171 41.9141 2.92555 41.4476 3.04212 41.0977C3.2754 40.3395 3.50854 39.4062 4.03333 38.9395C4.32496 38.7062 5.37483 39.2314 5.95813 39.6397C8.17461 41.1562 10.3332 42.7894 12.4913 44.3643C13.4245 45.064 14.0666 44.5969 14.7081 44.0137C16.2829 42.6139 17.858 41.1556 19.4327 39.7559C23.1074 36.373 27.6568 35.3233 32.4396 34.915C32.9645 34.8567 33.6061 35.0311 34.131 35.2061C35.1224 35.556 35.5891 36.3143 35.0646 37.3057C34.7729 37.8306 34.4809 38.3559 34.131 38.8809C31.3896 42.7305 28.6478 46.58 25.9064 50.4297C25.4398 51.0713 25.0903 51.7715 24.7404 52.4131C24.857 52.5297 25.0316 52.705 25.2648 52.8799C25.8481 52.3549 26.5481 51.9463 27.0148 51.3047C30.0478 46.9885 33.1982 42.7893 35.9396 38.3564C38.9726 33.4569 43.1136 30.482 48.713 29.3154C49.2379 29.1988 49.7631 29.0239 50.2296 28.9072C49.7047 27.2157 49.122 25.64 48.6554 24.0068C48.3638 23.0157 48.0133 22.899 47.1388 23.3652C45.5056 24.1818 43.8721 25.0576 42.1222 25.6992C38.3892 27.1574 34.9474 25.9319 31.7394 24.0654C30.3397 23.2485 29.8153 19.4572 30.8068 18.2324C31.0985 17.8243 31.74 17.5329 32.2648 17.4746C38.9141 16.4247 44.8052 13.1581 51.1046 11C51.3963 10.8833 51.6884 10.8254 51.8634 10.6504ZM5.02552 24.7656C6.19199 24.3574 7.18385 24.7076 8.05872 25.4658C11.6166 28.4988 14.5914 31.9987 17.0411 35.9648C17.7992 37.2479 17.7408 38.2397 16.5743 39.1729C15.6411 39.9311 14.7657 40.8062 13.8908 41.5645C13.016 41.2146 12.4909 41.0973 11.9659 40.8057C7.53323 38.5892 3.97537 35.323 0.70911 31.6484C-0.224145 30.6569 -0.165901 29.4901 0.475711 28.3818C1.52562 26.632 3.10071 25.4656 5.02552 24.7656ZM9.92493 19.2822C11.9666 14.6746 17.3326 13.9752 20.424 17.9414C22.6987 20.8578 25.0323 23.8327 27.3654 26.749C30.2232 30.3068 29.9312 32.1152 25.965 34.4482C24.9736 34.9731 23.8074 35.3812 23.2824 35.6729C21.0075 35.6145 19.6655 34.9144 18.674 33.6895C15.7576 30.0732 12.8994 26.4568 10.0997 22.7822C9.28325 21.674 9.4 20.4488 9.92493 19.2822ZM34.0724 27.7402C35.7056 27.4486 39.2061 28.6737 40.256 29.7236C38.0979 32.7567 35.2394 33.5734 31.6232 32.7568C31.7981 32.3488 31.9145 31.9404 32.1476 31.707C33.0225 30.8321 33.6065 29.8982 33.3732 28.5566C33.3152 28.3233 33.7808 27.7989 34.0724 27.7402ZM29.3478 4.99219C29.8727 5.05052 30.4568 5.45889 30.8068 5.86719C32.2649 7.61698 33.665 9.48362 35.1232 11.2334C36.1146 12.4581 36.1721 12.983 34.714 13.7412C33.5476 14.3244 32.2649 14.7334 31.0402 15.1416C28.707 15.8415 28.2986 16.308 28.007 18.7578C27.9486 19.2827 27.7151 19.8078 27.5402 20.2744C27.0735 20.0411 26.4321 19.9239 26.0822 19.5156C23.9823 17.4158 22.4652 14.9076 21.882 12.6328C21.9405 7.96692 25.4401 4.70082 29.3478 4.99219ZM35.2394 3.35938C36.4059 0.676374 39.9052 -0.66519 42.6466 0.326176C45.8546 1.55104 47.4298 4.2338 48.713 7.0918C49.2379 8.31661 48.2468 9.13352 47.3136 9.7168C45.3304 11 43.1135 11.6995 40.547 11.7578C39.0889 11.8744 37.8645 11.2328 37.048 9.83301C36.3481 8.66649 35.5891 7.49998 35.1808 6.2168C34.8893 5.34202 34.8896 4.17586 35.2394 3.35938Z" fill="url(#paint0_linear_158_24)"/>
<defs>
<linearGradient id="paint0_linear_158_24" x1="31.1534" y1="1.02892e-07" x2="31.1534" y2="140.933" gradientUnits="userSpaceOnUse">
<stop stop-color="white"/>
<stop offset="1" stop-color="#003B73"/>
</linearGradient>
</defs>
</svg>
