<svg width="98" height="113" viewBox="0 0 98 113" fill="none" xmlns="http://www.w3.org/2000/svg">
<path d="M9.39746 38.1826C9.92819 38.1827 10.4372 38.3942 10.8125 38.7695C11.1878 39.1449 11.3984 39.6538 11.3984 40.1846V46.918H14.791C15.8518 46.9211 16.8691 47.3437 17.6191 48.0938C18.369 48.8438 18.7918 49.8603 18.7949 50.9209V99.3398C18.795 99.8655 18.6913 100.386 18.4902 100.872C18.2891 101.358 17.9937 101.799 17.6221 102.171C17.2504 102.542 16.8088 102.837 16.3232 103.038C15.8375 103.239 15.3167 103.343 14.791 103.343H11.3984V110.088C11.3907 110.614 11.1763 111.115 10.8018 111.484C10.4273 111.853 9.923 112.06 9.39746 112.061C8.87171 112.061 8.36672 111.853 7.99219 111.484C7.61765 111.115 7.40332 110.614 7.39551 110.088V103.343H4.00293C3.47719 103.343 2.95645 103.239 2.4707 103.038C1.98508 102.837 1.54357 102.543 1.17188 102.171C0.800113 101.799 0.504843 101.357 0.303711 100.871C0.102765 100.386 -8.81191e-05 99.8653 0 99.3398V50.9209C0.00310498 49.8601 0.425703 48.8438 1.17578 48.0938C1.92586 47.3437 2.94218 46.9211 4.00293 46.918H7.39551V40.1846C7.39551 39.6539 7.60627 39.1449 7.98145 38.7695C8.35682 38.3942 8.8666 38.1826 9.39746 38.1826ZM61.8252 27.3066C62.3561 27.3066 62.8649 27.5182 63.2402 27.8936C63.6156 28.2689 63.8271 28.7777 63.8271 29.3086V36.0488H67.2129C68.2736 36.0519 69.29 36.4746 70.04 37.2246C70.7901 37.9747 71.2127 38.991 71.2158 40.0518V88.4707C71.2127 89.5314 70.7901 90.5478 70.04 91.2979C69.29 92.0479 68.2736 92.4705 67.2129 92.4736H63.8271V99.2119C63.8193 99.7376 63.605 100.239 63.2305 100.608C62.856 100.977 62.3509 101.184 61.8252 101.184C61.2995 101.184 60.7944 100.977 60.4199 100.608C60.0455 100.239 59.8311 99.7376 59.8232 99.2119V92.4736H56.4443C55.9186 92.4738 55.3979 92.3701 54.9121 92.1689C54.4265 91.9678 53.985 91.6734 53.6133 91.3018C53.2415 90.93 52.9462 90.4887 52.7451 90.0029C52.544 89.5172 52.4413 88.9964 52.4414 88.4707V40.0518C52.4413 39.5261 52.544 39.0052 52.7451 38.5195C52.9462 38.0338 53.2415 37.5924 53.6133 37.2207C53.985 36.849 54.4265 36.5546 54.9121 36.3535C55.3979 36.1524 55.9186 36.0487 56.4443 36.0488H59.8232V29.3086C59.8232 28.7778 60.0348 28.2689 60.4102 27.8936C60.7855 27.5182 61.2944 27.3067 61.8252 27.3066ZM35.6104 13.3623C36.141 13.3624 36.6501 13.5731 37.0254 13.9482C37.4008 14.3236 37.6113 14.8334 37.6113 15.3643V22.0977H40.9912C41.5169 22.0975 42.0377 22.2012 42.5234 22.4023C43.009 22.6034 43.4506 22.8979 43.8223 23.2695C44.194 23.6413 44.4883 24.0836 44.6895 24.5693C44.8905 25.0549 44.9942 25.5751 44.9941 26.1006V74.5195C44.996 75.0457 44.8939 75.5672 44.6934 76.0537C44.4928 76.5402 44.1982 76.9824 43.8262 77.3545C43.4541 77.7265 43.0118 78.0211 42.5254 78.2217C42.0389 78.4222 41.5174 78.5243 40.9912 78.5225H37.6113V85.2676C37.6035 85.7932 37.3891 86.2951 37.0146 86.6641C36.6402 87.0328 36.1359 87.2392 35.6104 87.2393C35.0846 87.2393 34.5796 87.033 34.2051 86.6641C33.8306 86.2951 33.6162 85.7933 33.6084 85.2676V78.5225H30.2227C29.697 78.5226 29.1761 78.4198 28.6904 78.2188C28.2047 78.0176 27.7634 77.7223 27.3916 77.3506C27.0198 76.9788 26.7246 76.5375 26.5234 76.0518C26.3223 75.566 26.2186 75.0452 26.2188 74.5195V26.1006C26.222 25.04 26.6455 24.0234 27.3955 23.2734C28.1456 22.5236 29.162 22.1008 30.2227 22.0977H33.6084V15.3643C33.6084 14.8334 33.819 14.3236 34.1943 13.9482C34.5697 13.5729 35.0795 13.3623 35.6104 13.3623ZM88.0391 0C88.5699 0 89.0797 0.210565 89.4551 0.585938C89.8304 0.961309 90.041 1.4711 90.041 2.00195V8.74707H93.4336C93.9593 8.74693 94.4801 8.85063 94.9658 9.05176C95.4515 9.25286 95.8929 9.54729 96.2646 9.91895C96.6364 10.2907 96.9317 10.7321 97.1328 11.2178C97.3339 11.7035 97.4366 12.2243 97.4365 12.75V61.1689C97.4334 62.2297 97.0108 63.246 96.2607 63.9961C95.5107 64.7461 94.4943 65.1687 93.4336 65.1719H90.041V71.9053C90.0332 72.4309 89.8188 72.9328 89.4443 73.3018C89.0698 73.6706 88.5647 73.8769 88.0391 73.877C87.5136 73.8769 87.0092 73.6704 86.6348 73.3018C86.2603 72.9328 86.0459 72.4309 86.0381 71.9053V65.1719H82.6455C81.5847 65.1688 80.5675 64.7462 79.8174 63.9961C79.0674 63.2461 78.6447 62.2296 78.6416 61.1689V12.75C78.6415 12.2243 78.7452 11.7035 78.9463 11.2178C79.1474 10.7321 79.4428 10.2906 79.8145 9.91895C80.1861 9.54735 80.6277 9.25282 81.1133 9.05176C81.599 8.85069 82.1198 8.74692 82.6455 8.74707H86.0381V2.00195C86.0381 1.4711 86.2486 0.96131 86.624 0.585938C86.9993 0.210739 87.5084 8.2796e-05 88.0391 0Z" fill="url(#paint0_linear_174_394)"/>
<defs>
<linearGradient id="paint0_linear_174_394" x1="48.7183" y1="0" x2="48.7183" y2="137.721" gradientUnits="userSpaceOnUse">
<stop stop-color="white"/>
<stop offset="1" stop-color="#003B73"/>
</linearGradient>
</defs>
</svg>
