<svg width="109" height="95" viewBox="0 0 109 95" fill="none" xmlns="http://www.w3.org/2000/svg">
<path d="M26.1104 11.4533C35.6608 6.32599 46.539 5.95068 56.7578 9.75021L55.8135 14.4992L53.2568 15.4699L48.9346 12.6145C47.8983 11.9304 46.6558 12.1397 45.79 13.01L39.6553 19.1594C38.7693 20.0476 38.769 21.3222 39.4307 22.3293L42.248 26.6125C41.8196 27.4693 41.5255 28.1989 41.2227 29.0871L36.1289 30.1545C34.9897 30.3924 34.1402 31.2876 34.1357 32.5256L34.1133 41.2414C34.1111 42.5355 35.0059 43.4891 36.2148 43.7336L41.1943 44.7473L42.2168 47.259L39.3125 51.7336C38.7159 52.651 38.8414 53.829 39.6152 54.6096L45.7402 60.7971C46.6105 61.6763 47.9005 61.8603 48.9502 61.1672L53.2725 58.3078L55.8428 59.3957L56.8604 64.4172C57.0914 65.5521 58.0383 66.4474 59.2539 66.4475L67.9922 66.4524C69.1069 66.4524 70.1458 65.707 70.3857 64.5451L70.3838 64.5432L71.4463 59.4094L73.9902 58.299L75.791 59.4943C73.8262 63.5158 71.7339 67.3513 69.1748 71.0813L62.9775 80.1086C62.1948 81.4073 61.9571 82.9014 62.4102 84.384C63.4239 87.69 64.5207 90.8614 65.8799 94.0598H26.6865C26.0563 91.5792 25.3075 89.3518 24.4238 87.0686C23.8989 85.7117 22.6959 84.8036 21.2021 84.844L11.6787 84.7854L11.4746 78.3889C11.4544 77.7586 11.078 77.2291 10.6025 76.9084L8.83105 75.7111L9.98535 74.1135C10.6717 73.1625 10.3421 71.8277 9.37988 71.175L7.22656 69.7131L7.66895 63.8361C7.65757 63.2285 7.32307 62.7439 6.74902 62.5959L0 60.8645L7.89258 49.8723C9.05666 48.2484 9.90926 46.6961 9.89355 44.5676C9.87561 42.0263 9.24511 39.6575 8.40625 37.2082C9.66461 26.1327 16.3559 16.6883 26.1104 11.4533ZM98.1973 58.5207C98.7602 58.505 99.209 58.7562 99.4736 59.216L102.899 65.1633C105.134 64.6555 107.163 65.4902 108.149 67.425C109.136 69.3607 108.535 71.6863 106.745 72.9445C104.955 74.2027 102.695 74.0192 101.217 72.5637C99.6355 71.0071 99.3575 68.6271 100.755 66.7229L97.5381 61.1604L81.1689 61.1428L83.7598 58.5275L98.1973 58.5207ZM69.0781 15.7004C69.3338 16.9475 71.5772 17.0509 73.4209 18.1477C73.9659 18.3898 74.4972 18.3115 74.9727 17.9953L79.7012 14.8352L85.6943 20.8459L82.3428 26.0637C82.0473 26.5235 82.4508 27.2276 82.666 27.6223L84.2178 31.2942L90.5654 32.6418L90.5771 41.1848L84.835 42.3606C84.3684 42.457 84.0323 42.8001 83.8506 43.2375L82.4062 46.7072C82.2022 47.1961 82.2598 47.7322 82.54 48.1516L85.71 52.927L79.6875 58.969L74.5938 55.6477C74.0375 55.2843 73.2435 55.7437 72.75 56.0285L69.2871 57.4445L69.2783 57.4465L67.9072 63.8322H59.375L58.0273 57.4758L53.0283 55.4387L47.6094 58.965L41.5908 52.9719L44.8164 48.0549C45.0854 47.6446 45.0696 47.1404 44.8926 46.6897C43.733 44.8235 43.7577 42.6293 42.4209 42.3557L36.7129 41.1916L36.7061 32.6711L43.0576 31.2981L44.5293 27.8176C44.767 27.3668 45.278 26.5817 44.9395 26.0568L41.5869 20.8527L47.6113 14.8401L52.4355 18.0647C52.855 18.345 53.3641 18.3695 53.8262 18.1565C55.6517 17.0665 57.9528 16.9457 58.2021 15.7326L59.3818 9.99239L67.9102 9.98849L69.0781 15.7004ZM101.904 49.7873C103.768 48.5897 106.051 49.0202 107.531 50.6037C109.011 52.1872 108.928 54.5529 107.699 56.2014C106.407 57.9307 104.155 58.3907 102.242 57.424C100.329 56.4573 99.3108 54.1941 100.179 51.8459V51.844L97.5322 49.6838H86.6426L85.0908 47.0861L98.5488 47.0725L101.904 49.7873ZM76.2891 36.219C75.9009 29.2078 70.2089 23.9308 63.043 24.258H63.04C55.8113 24.5879 50.5873 30.7555 50.9932 37.6994C51.3991 44.6435 57.3594 49.8858 64.29 49.5471C71.2205 49.2082 76.6771 43.2302 76.2891 36.219ZM63.082 26.8596C68.7836 26.5389 73.3076 30.8856 73.6934 36.2395C74.097 41.8557 69.7772 46.6105 64.2754 46.9582C58.7735 47.3059 53.976 43.1228 53.5947 37.6389C53.209 32.1078 57.2572 27.1912 63.082 26.8615V26.8596ZM100.023 35.5442C100.9 33.3888 102.879 32.1346 105.171 32.592C107.075 32.9711 108.67 34.8625 108.623 37.0471C108.578 39.0565 107.044 40.8996 104.902 41.2541C102.877 41.5906 100.755 40.3548 100.023 38.2375L93.1758 38.215V35.5803L100.023 35.5442ZM102.013 16.5109C103.854 15.3603 106.122 15.7949 107.481 17.3313C108.937 18.9752 108.973 21.335 107.708 22.9162C106.29 24.6859 104.024 25.2418 101.97 24.0217L98.458 26.7356L85.2441 26.7492L85.2422 26.7473C85.5023 25.8592 86.1504 25.0674 86.6572 24.1457L97.5469 24.1545L100.189 22.0061C99.3282 19.8171 100.171 17.6616 102.013 16.5109ZM101.123 1.33321C102.65 -0.205327 104.922 -0.452796 106.748 0.802941C108.574 2.05898 109.195 4.32941 108.208 6.33907C107.221 8.34855 105.171 9.31075 102.915 8.6379L99.0459 15.2346L83.9219 15.2971L83.9238 15.2951L81.1807 12.6818L97.541 12.6779L100.746 7.16232C99.4094 5.29405 99.551 2.91672 101.123 1.33321Z" fill="url(#paint0_linear_173_220)"/>
<defs>
<linearGradient id="paint0_linear_173_220" x1="54.3373" y1="0" x2="54.3373" y2="115.598" gradientUnits="userSpaceOnUse">
<stop stop-color="white"/>
<stop offset="1" stop-color="#003B73"/>
</linearGradient>
</defs>
</svg>
