<svg width="80" height="87" viewBox="0 0 80 87" fill="none" xmlns="http://www.w3.org/2000/svg">
<path d="M57.5664 56.6748C58.0306 56.6585 59.0524 57.0126 59.0566 57.6397L59.1221 70.5342C59.1223 71.21 59.6564 71.6377 60.1816 71.6621C60.7638 71.6904 61.4065 71.2709 61.4189 70.5342L61.4883 64.751C61.4964 64.0303 62.2822 63.7045 62.832 63.7002C63.3817 63.6962 64.2376 63.9483 64.2461 64.6973L64.3027 71.3565C64.3109 72.1425 64.816 72.5985 65.4961 72.6026C66.1761 72.6066 66.7057 72.1463 66.7139 71.3604L66.7666 66.7705C66.7749 66.1312 67.614 65.8018 68.123 65.8018C68.5996 65.8019 69.4948 66.1275 69.5029 66.836L69.499 66.8399L69.5723 74.1953C69.5806 74.8346 70.1349 75.2169 70.5869 75.2862C71.1163 75.3635 71.8004 75.0665 71.8086 74.419L71.8818 69.0635C71.8941 68.3142 72.7089 68.0539 73.2139 68.001C73.6579 67.9563 74.732 68.188 74.7324 68.8555L74.7246 78.0684C74.7245 81.3427 72.3298 84.344 69.2754 85.5332C66.8931 86.4577 64.1889 86.4987 61.7617 85.5948C58.797 84.4911 56.2183 81.5423 56.21 78.2559L56.1328 57.6241C56.1328 57.0254 57.1387 56.6912 57.5664 56.6748ZM79.29 75.9668C79.2899 77.3433 78.1247 78.3777 77.1025 79.0537V69.1084C77.0985 68.2655 76.6793 67.2963 76.0889 66.7627C74.8712 65.6591 73.2542 65.3979 71.6904 66.0371C71.1729 63.8912 68.3591 62.894 66.498 63.916C65.9891 62.1611 64.4824 61.383 62.4385 61.3379L63.9404 57.8682C65.1744 54.4309 65.7889 50.8506 65.6016 47.2422C65.1942 39.374 61.3619 32.3609 55.4893 27.8526C48.8306 22.7375 40.4691 21.2262 32.5928 23.3887C22.0367 26.2885 14.604 35.5749 13.6592 46.1514C12.6697 57.2613 18.7422 67.7403 28.8828 72.3057C37.024 75.9711 46.1635 75.401 53.8037 70.3184L53.8975 79.5381H3.94629C1.97532 79.2693 0.0286069 77.9339 0.0283203 75.792L0 16.1075H79.3145L79.29 75.9668ZM29.9092 61.4844C36.1607 60.1404 43.1862 60.0839 49.4092 61.4727C48.2485 64.9505 46.4729 68.8274 43.3047 71.0713H43.2998C40.8807 72.7816 37.9728 72.6145 35.7207 70.8877C32.7846 68.6355 31.0087 64.8849 29.9092 61.4844ZM53.7871 62.8321L53.8525 67.5528H53.8486C51.6739 69.1614 49.3805 70.3666 46.6641 71.2666C49.0669 68.4769 50.6189 65.4387 51.6289 62.1114L53.7871 62.8321ZM27.6943 62.1241C28.6432 65.4227 30.2517 68.4687 32.5322 71.128V71.1328C28.3537 69.9111 24.9412 67.5524 22.0537 64.4043C23.8659 63.3537 25.7477 62.6983 27.6943 62.1241ZM25.6328 49.7188C25.8079 53.099 26.1381 56.382 26.9404 59.8233C24.7535 60.5523 22.7335 61.4278 20.5547 62.5518C19.6098 61.0694 18.5426 59.6391 17.9072 57.9326C16.8973 55.2897 16.083 52.6952 16.083 49.7305L25.6328 49.7188ZM63.252 49.8369C63.1379 52.6185 62.5105 55.1966 61.415 57.7012C61.0607 55.2373 58.7597 53.8199 56.2998 54.5733C55.0252 54.9642 54.2028 55.8844 53.9258 57.167L53.8438 60.2744L52.374 59.8311C53.1112 56.5649 53.5139 53.2945 53.6523 49.8369H63.252ZM51.3682 49.8487C51.2256 52.9968 50.9117 55.9294 50.0605 59.2364V59.2403C43.2716 57.7579 36.218 57.6361 29.2783 59.3018C28.4394 56.1822 28.1094 53.0985 27.9424 49.7549L51.3682 49.8487ZM58.7031 34.5889C61.4724 38.3031 63.0079 42.6775 63.2686 47.4424L53.6777 47.4131H53.6729C53.5384 43.9149 53.0947 40.6402 52.3779 37.3008C54.6342 36.5433 56.7075 35.8514 58.7031 34.5889ZM20.5869 34.5645C22.6476 35.9125 24.7657 36.5275 26.9404 37.3379C26.1952 40.6814 25.8079 43.8051 25.6328 47.3848V47.3809L16.0791 47.4336C16.1117 44.5871 16.8893 41.9238 17.9033 39.2442C18.5508 37.5297 19.6136 36.1364 20.5869 34.5645ZM50.0322 37.9287C50.8589 40.9626 51.2007 44.0616 51.3799 47.4131H27.9424C28.1216 44.0574 28.4635 40.9539 29.2861 37.9444C32.2265 38.6652 35.2852 38.9298 38.3926 39.0235C39.3578 39.2678 40.2951 39.1788 41.248 38.9629H41.2432C44.1469 38.9792 47.3362 38.6088 50.0322 37.9287ZM35.8877 26.2608C38.2009 24.4729 41.1254 24.4602 43.4102 26.2725C44.7988 27.1603 45.7271 28.4962 46.7451 29.8116C47.7754 31.6279 48.6632 33.4036 49.4492 35.6231C43.0187 37.1299 36.3026 37.1017 29.8721 35.6397C31.2201 31.9907 32.8293 28.403 35.8877 26.2608ZM46.7734 26.0606C50.96 27.2579 54.3572 29.6078 57.2568 32.8047H57.2607C55.3915 33.7332 53.7097 34.5682 51.6572 35.1221C50.6309 31.7582 49.0663 28.6752 46.7734 26.0606ZM32.5322 26.0528C30.3208 28.6185 28.7076 31.5919 27.6895 35.0821C25.7266 34.6707 24.0933 33.7866 22.0693 32.8174C24.7369 29.7141 28.309 27.299 32.5322 26.0528ZM75.0947 3.24249e-05C77.2817 -0.00811282 79.2575 1.47849 79.2656 3.75101L79.3105 13.6758H0L0.0244141 3.86136C0.0325593 1.69065 1.81234 0.0814848 4.01562 3.24249e-05H75.0947ZM27.3887 6.15335C26.5987 6.15335 26.3217 6.85814 26.3623 7.41605C26.403 7.974 26.8265 8.46292 27.6084 8.46292H71.2949L71.291 8.46683C72.1461 8.20622 72.4233 7.73821 72.3867 7.21292C72.3501 6.68759 71.9551 6.15343 71.2344 6.15335H27.3887Z" fill="url(#paint0_linear_172_100)"/>
<defs>
<linearGradient id="paint0_linear_172_100" x1="39.6572" y1="3.24249e-05" x2="39.6572" y2="106" gradientUnits="userSpaceOnUse">
<stop stop-color="white"/>
<stop offset="1" stop-color="#003B73"/>
</linearGradient>
</defs>
</svg>
