<svg width="103" height="95" viewBox="0 0 103 95" fill="none" xmlns="http://www.w3.org/2000/svg">
<path d="M47.3763 75.9228C50.1252 76.3728 52.6776 76.3555 55.4134 75.9315C57.8302 77.2383 59.7271 79.0608 61.4271 81.2372C63.9181 84.9301 64.9847 89.1778 64.9017 94.0419L37.8744 94.0595C37.6953 86.2146 40.6546 79.7425 47.3763 75.9228ZM57.0267 7.27529C57.184 7.69916 57.2235 8.14972 57.2279 8.65224L57.2357 17.0741C62.0957 18.1536 66.3924 20.2603 70.2865 23.3895L77.9613 17.3622L85.1371 26.4052L78.2142 31.8456C77.7815 32.1865 77.5019 32.6153 77.7816 33.1835C79.7352 37.1563 80.6924 41.4961 80.723 45.954C80.723 46.4741 81.0247 46.8853 81.5492 46.9989L90.2074 48.9218L87.6761 60.1102L78.7699 58.121C78.2586 58.0074 77.9046 58.5323 77.721 58.9257C75.7849 63.0995 72.7424 66.4868 69.1761 69.4325L71.6898 74.8212L73.3109 78.2431L64.1283 82.705C62.5942 79.5497 60.26 77.2294 57.4281 75.2978C59.5609 73.9691 59.8973 71.228 60.1595 68.5839C65.911 66.3462 70.5093 62.0025 73.2015 56.4696C76.3352 50.0232 76.436 42.8941 73.6214 36.3602L73.6302 36.3651C69.6706 27.1828 60.6146 21.4179 50.7855 21.6669C39.6364 21.951 30.1521 29.8055 27.6566 40.7011C26.4286 46.0766 27.2195 51.5002 29.5794 56.4911C31.9395 61.4822 35.9866 65.4379 40.9339 67.9159L42.6214 68.6015C42.8793 71.1799 43.1762 73.9728 45.3568 75.2841C42.5772 77.2158 40.1609 79.5063 38.6488 82.7011L29.5277 78.2821L31.5248 73.9511L33.6009 69.4276C30.0914 66.5737 27.1633 63.2652 25.1878 59.2226C25.0524 58.7332 24.602 57.9995 24.0296 58.1259L15.0999 60.1102L12.5697 48.9169L21.057 47.0419C21.6208 46.9195 22.0711 46.5527 22.0755 45.954C22.1192 41.7321 23.2073 36.8192 25.056 33.0038C25.2044 32.6979 25.0429 32.239 24.7982 32.0468L17.64 26.3964L24.8158 17.3534L31.9046 22.9999C32.3111 23.3233 32.67 23.2803 33.0677 22.9569C36.6952 20.0025 40.93 18.153 45.5365 17.0517L45.6234 7.28408L57.0267 7.27529ZM46.6849 59.7118C49.0099 58.8727 53.944 58.8645 56.2474 59.7821C57.1128 60.1274 57.6594 60.6477 57.9085 61.5917C58.8132 65.0574 58.8616 68.7592 57.8871 72.203V72.1991C57.2313 74.5152 54.2022 74.6244 51.5013 74.6288C48.6256 74.6332 45.4749 74.5631 44.8324 72.0546C43.9714 68.6981 43.9494 65.1142 44.8148 61.7577C45.0945 60.6782 45.6754 60.0746 46.6849 59.7118ZM45.1556 58.536C44.736 58.9818 44.3559 59.3543 43.849 59.6864C41.8255 58.607 40.2046 57.0636 38.8236 55.2675L43.9544 55.2499L45.1556 58.536ZM63.9798 55.2851C62.5507 57.0638 61.0209 58.5059 59.0062 59.6815L59.0013 59.6776C58.4069 59.4023 58.0708 58.9646 57.6556 58.58L58.8402 55.2499L63.9798 55.2851ZM57.1126 55.2626C56.9029 56.2852 56.5495 57.0111 56.0951 57.9462V57.9423C52.9046 57.2692 49.8755 57.2649 46.7113 57.9423C46.2611 57.1163 45.898 56.3159 45.6751 55.2626H57.1126ZM42.3851 46.7577C42.4463 48.9503 42.7816 51.0737 43.4232 53.6063L37.8402 53.6718C36.5947 51.5872 35.9872 49.3586 35.7249 46.789L42.3851 46.7577ZM58.8001 46.7802C58.6341 49.2101 58.3286 51.2864 57.6468 53.6552L45.1556 53.664C44.4564 51.3477 44.1198 49.0877 44.0062 46.7802H58.8001ZM67.0609 46.7753C66.7943 49.3102 66.1952 51.4699 64.9496 53.6552L64.9535 53.6591L59.3685 53.6464C59.9104 51.2645 60.3652 49.1095 60.3783 46.7538L67.0609 46.7753ZM43.4251 53.6112C43.4247 53.6096 43.4236 53.608 43.4232 53.6063H43.43L43.4251 53.6112ZM64.9584 38.2528C66.169 40.2895 66.7986 42.4447 67.0521 45.1063V45.1102L60.4046 45.1669C60.3347 42.9031 59.9633 40.6872 59.3646 38.2704L64.9584 38.2528ZM43.4164 38.2704C42.8744 40.5955 42.4284 42.6761 42.3978 45.1542H35.7152C35.9206 42.7155 36.5497 40.4732 37.7953 38.2792L43.4164 38.2704ZM57.6517 38.2665C58.3072 40.5041 58.6651 42.6587 58.7962 45.1454H58.7923L43.9896 45.1542C44.1294 42.8117 44.4568 40.5609 45.1429 38.2665H57.6517ZM48.4906 30.539C50.4878 30.268 52.3063 30.268 54.2992 30.539C55.3219 32.4707 56.4146 34.2018 57.1576 36.6493L45.641 36.7147C46.2222 34.4639 47.4242 32.5712 48.4906 30.539ZM56.5287 31.2558C59.4916 32.1779 61.9607 34.0706 63.9623 36.6708L58.8226 36.6933C58.2413 34.7965 57.5645 33.1263 56.5287 31.2558ZM46.2572 31.247C45.2347 33.0778 44.5184 34.6644 43.9896 36.6786L38.8236 36.6669C40.8121 34.0534 43.3072 32.1779 46.2572 31.247ZM93.3236 16.8505C95.8628 18.5156 98.196 20.3912 99.7562 22.9784C101.168 25.3209 102.208 27.7596 102.431 30.4735L102.798 34.9843L80.4037 34.9931L79.5121 32.8778L86.3783 27.3974C86.6755 27.157 86.9552 26.9509 87.0033 26.6493C87.0643 26.2736 86.8373 26.0241 86.597 25.7226L81.6537 19.4999C82.7769 18.5209 83.9007 17.6285 85.2162 16.8681C87.9302 17.2832 90.5746 17.3006 93.3236 16.8505ZM9.61557 16.8202C11.1277 17.1436 13.1509 17.2751 14.6585 17.1571L17.513 16.9296C18.9157 17.4497 19.8814 18.5819 21.14 19.456L16.0921 25.8407C15.7206 26.3127 15.6506 26.8028 16.2406 27.2704L23.2816 32.8729L22.3861 34.9882H0.000340916C-0.0345808 27.069 2.60975 20.8367 9.61557 16.8202ZM8.94175 0.592672C11.953 -0.198379 15.2526 -0.211236 18.2376 0.636617C19.256 0.925069 19.7499 1.61586 20.0296 2.54677C21.0172 5.8247 21.0527 11.5019 19.3919 14.4999H19.3958C16.6729 16.2348 8.81548 16.1034 7.56089 14.1894C6.01811 11.8293 6.08816 5.6405 6.96226 2.70791C7.2682 1.6853 7.83609 0.881109 8.94175 0.592672ZM84.6869 0.579976C87.5889 -0.184858 90.74 -0.185051 93.6595 0.54482C94.6908 0.802647 95.3771 1.43598 95.7005 2.37978C96.662 5.17678 96.671 10.6007 95.6791 13.328C95.3382 14.2633 94.7085 14.9758 93.5853 15.2118L93.5892 15.2167C90.4861 15.8722 84.8745 16.0077 83.4759 14.4257C81.6797 12.3934 81.7546 5.81986 82.7992 2.38466C83.0832 1.44944 83.6949 0.842231 84.6869 0.579976Z" fill="url(#paint0_linear_172_61)"/>
<defs>
<linearGradient id="paint0_linear_172_61" x1="51.3991" y1="0" x2="51.3991" y2="115.598" gradientUnits="userSpaceOnUse">
<stop stop-color="white"/>
<stop offset="1" stop-color="#003B73"/>
</linearGradient>
</defs>
</svg>
