<svg width="85" height="85" viewBox="0 0 85 85" fill="none" xmlns="http://www.w3.org/2000/svg">
<path d="M83.6565 36.0301C83.5161 35.0502 82.8025 34.2494 81.845 33.9976L77.6583 32.8958C76.7966 29.5312 75.4662 26.3243 73.6892 23.329L75.8738 19.583C76.3722 18.728 76.3108 17.6579 75.7178 16.8657C74.5232 15.2697 73.1951 13.738 71.7701 12.3125C70.3484 10.8903 68.8163 9.56204 67.2167 8.36418C66.4245 7.77099 65.3542 7.7094 64.499 8.20849L60.7536 10.3934C57.7583 8.6161 54.5514 7.2857 51.1869 6.424L50.0851 2.23738C49.8332 1.2801 49.0329 0.56654 48.053 0.425798C44.1007 -0.141933 39.9831 -0.141933 36.0308 0.425798C35.0509 0.566376 34.2506 1.27994 33.9987 2.23738L32.8969 6.424C29.5324 7.28554 26.3258 8.61593 23.3302 10.3934L19.5848 8.20849C18.7299 7.70973 17.6593 7.77132 16.867 8.36418C15.2676 9.56188 13.7356 10.8901 12.3135 12.3125C10.8887 13.7378 9.56061 15.2696 8.36602 16.8655C7.773 17.6577 7.71158 18.7278 8.21001 19.5828L10.3945 23.3288C8.61745 26.3245 7.28706 29.5312 6.42552 32.8957L2.23873 33.9975C1.28129 34.2492 0.567731 35.05 0.427317 36.0299C0.143862 38.007 0 40.0293 0 42.0409C0 44.0526 0.143862 46.0748 0.427481 48.0518C0.567895 49.0317 1.28146 49.8325 2.2389 50.0843L6.42569 51.1861C7.28738 54.5507 8.61778 57.7576 10.3947 60.7529L8.21017 64.4989C7.71175 65.3539 7.77317 66.424 8.36619 67.2162C9.56077 68.8122 10.8889 70.3439 12.3139 71.7694C13.7356 73.1916 15.2676 74.5198 16.8672 75.7177C17.6594 76.3107 18.7297 76.3725 19.585 75.8734L23.3303 73.6885C26.3257 75.4658 29.5325 76.7962 32.897 77.6577L33.9988 81.8443C34.2507 82.8016 35.051 83.5152 36.031 83.6559C38.0071 83.94 40.0295 84.0839 42.042 84.0839C44.0544 84.0839 46.0769 83.94 48.0532 83.6562C49.0331 83.5155 49.8334 82.8021 50.0853 81.8447L51.1871 77.6581C54.5516 76.7965 57.7581 75.4661 60.7538 73.6889L64.4991 75.8737C65.3544 76.3728 66.4248 76.3112 67.2169 75.718C68.8163 74.5203 70.3484 73.1921 71.7704 71.7697C73.1952 70.3444 74.5233 68.8126 75.7179 67.2167C76.3109 66.4245 76.3724 65.3544 75.8739 64.4994L73.6894 60.7534C75.4665 57.7577 76.7969 54.5512 77.6584 51.1866L81.8452 50.0848C82.8027 49.833 83.5162 49.0322 83.6566 48.0523C83.9402 46.0753 84.0841 44.053 84.0841 42.0414C84.0841 40.0298 83.9401 38.007 83.6565 36.0301ZM42.042 68.2525C27.5894 68.2525 15.8314 56.4945 15.8314 42.0419C15.8314 27.5893 27.5894 15.8314 42.042 15.8314C56.4946 15.8314 68.2525 27.5893 68.2525 42.0419C68.2525 56.4945 56.4946 68.2525 42.042 68.2525Z" fill="url(#paint0_linear_158_34)"/>
<path d="M42.0416 20.7581C30.3056 20.7581 20.7578 30.3059 20.7578 42.0419C20.7578 53.7778 30.3056 63.3256 42.0416 63.3256C53.7775 63.3256 63.3253 53.7778 63.3253 42.0419C63.3253 30.3059 53.7775 20.7581 42.0416 20.7581ZM54.3377 38.5066L41.1449 51.6996C40.6829 52.1615 40.0564 52.4212 39.4031 52.4212C38.7498 52.4212 38.1231 52.1617 37.6613 51.6996L31.0647 45.1031C30.1026 44.1412 30.1026 42.5814 31.0647 41.6193C32.0265 40.6575 33.5864 40.6575 34.5484 41.6193L39.4031 46.474L50.8541 35.0228C51.816 34.061 53.3758 34.061 54.3378 35.0228C55.2997 35.9847 55.2997 37.5445 54.3377 38.5066Z" fill="url(#paint1_linear_158_34)"/>
<defs>
<linearGradient id="paint0_linear_158_34" x1="39.2096" y1="9.74994e-08" x2="39.2096" y2="133.547" gradientUnits="userSpaceOnUse">
<stop stop-color="white"/>
<stop offset="1" stop-color="#003B73"/>
</linearGradient>
<linearGradient id="paint1_linear_158_34" x1="40.6077" y1="20.7581" x2="40.6077" y2="88.3662" gradientUnits="userSpaceOnUse">
<stop stop-color="white"/>
<stop offset="1" stop-color="#003B73"/>
</linearGradient>
</defs>
</svg>
