<svg width="86" height="87" viewBox="0 0 86 87" fill="none" xmlns="http://www.w3.org/2000/svg">
<path d="M37.5518 0.299805C44.5278 -0.410588 50.5132 0.0852804 57.1299 2.39062C69.4299 6.67479 79.1988 16.4571 83.4775 28.7598C85.7611 35.3275 86.2998 41.4138 85.584 48.3271C85.2982 51.1005 84.6562 53.6643 83.8125 56.2988C80.3177 67.2216 72.538 76.2855 62.3828 81.4434H62.3857C54.4736 85.4606 46.3273 86.6939 37.5605 85.7686C34.7027 85.4664 32.0705 84.75 29.3623 83.8682C18.5187 80.338 9.48465 72.3499 4.44922 62.2031C2.45411 58.183 0.779887 52.9127 0.314453 48.5088C-0.423104 41.5628 0.0886374 35.5065 2.36133 28.8926C6.61289 16.5056 16.5917 6.46782 29.0576 2.28711C31.8609 1.34816 34.5961 0.601929 37.5518 0.299805ZM57.2041 10.4277C48.1404 6.48652 37.8945 6.46798 28.8145 10.3711C16.3732 15.7196 8.06635 27.8043 7.45117 41.4404C6.67001 58.7212 18.4363 74.1268 35.3496 77.8232C54.1166 81.925 72.5926 70.4308 77.3857 51.8135V51.8164C81.7025 35.0554 73.1103 17.3413 57.2041 10.4277ZM48.2217 65.4717C49.5091 65.4717 50.299 66.7616 50.4541 67.7959C50.6092 68.8302 50.0372 70.727 48.6572 70.7324L37.3105 70.7568C35.9771 70.7596 35.337 69.0132 35.4238 67.957C35.5218 66.7677 36.4064 65.4496 37.7998 65.4521L48.2217 65.4717ZM55.3643 56.8711C56.6243 56.8713 57.5578 58.3922 57.6123 59.4346C57.664 60.379 56.94 62.1759 55.5791 62.1787L30.3828 62.1943C29.0465 62.1942 28.3198 60.5832 28.3252 59.5381C28.3306 58.4929 29.1884 56.8789 30.5303 56.8789L55.3643 56.8711ZM62.2764 48.251C63.3569 48.6239 64.1794 49.2658 64.4053 50.4824C64.6829 51.9848 63.7222 53.6424 62.0566 53.6426L23.9727 53.6562C22.5138 53.6562 21.5416 52.3793 21.46 51.1191C21.3866 49.9814 22.3232 48.2996 23.7793 48.2969L62.2764 48.251ZM42.9404 14.7969C43.9965 14.7914 45.5832 15.5508 45.5859 16.8301L45.6455 39.6631L68.7217 39.6846C70.2212 39.6846 71.2205 41.0974 71.0928 42.4854C71.0764 43.7836 70.1833 45.0282 68.6211 45.0283V45.0303H17.3604C15.8473 45.0329 14.8265 43.8686 14.8398 42.4971C14.6956 40.981 15.7684 39.6736 17.3389 39.6709L40.248 39.666L40.3057 16.8594C40.3086 15.5748 41.8844 14.8023 42.9404 14.7969Z" fill="url(#paint0_linear_173_198)"/>
<defs>
<linearGradient id="paint0_linear_173_198" x1="42.9399" y1="0" x2="42.9399" y2="105.767" gradientUnits="userSpaceOnUse">
<stop stop-color="white"/>
<stop offset="1" stop-color="#003B73"/>
</linearGradient>
</defs>
</svg>
