<svg width="87" height="86" viewBox="0 0 87 86" fill="none" xmlns="http://www.w3.org/2000/svg">
<path d="M64.8789 39.3467C65.2324 39.3468 65.5757 39.4705 65.8477 39.6963C66.1195 39.922 66.3039 40.2357 66.3691 40.583L67.1729 44.8682C67.2451 45.2695 67.4218 45.6452 67.6846 45.957C67.9474 46.2687 68.2877 46.5064 68.6709 46.6455C69.2251 46.8411 69.7691 47.065 70.2998 47.3174C70.669 47.4894 71.0767 47.5622 71.4824 47.5273C71.8882 47.4925 72.2778 47.3515 72.6123 47.1191L76.209 44.6592C76.5007 44.4596 76.8531 44.3677 77.2051 44.4004C77.557 44.4331 77.8868 44.5879 78.1367 44.8379L80.751 47.4531C81.0008 47.703 81.1557 48.032 81.1885 48.3838C81.2212 48.7356 81.13 49.0882 80.9307 49.3799L78.4697 52.9766C78.2375 53.311 78.0974 53.7008 78.0625 54.1064C78.0277 54.5122 78.0996 54.9208 78.2715 55.29C78.5242 55.8207 78.749 56.3646 78.9443 56.9189C79.0836 57.3021 79.3211 57.6425 79.6328 57.9053C79.9445 58.1678 80.3197 58.3437 80.7207 58.416L85.0059 59.2197C85.3534 59.2849 85.6678 59.469 85.8936 59.7412C86.1193 60.0134 86.2423 60.3564 86.2422 60.71V64.4072C86.2422 64.7608 86.1184 65.1039 85.8926 65.376C85.6668 65.6478 85.3532 65.8324 85.0059 65.8975L80.7207 66.7002C80.3195 66.7725 79.9445 66.9493 79.6328 67.2119C79.3211 67.4745 79.0836 67.8142 78.9443 68.1973C78.749 68.7515 78.524 69.2955 78.2715 69.8262C78.0995 70.1953 78.0277 70.604 78.0625 71.0098C78.0973 71.4154 78.2375 71.8053 78.4697 72.1396L80.9307 75.7363C81.1301 76.028 81.2212 76.3806 81.1885 76.7324C81.1557 77.0842 81.0008 77.4132 80.751 77.6631L78.1367 80.2783C77.8868 80.5282 77.557 80.6831 77.2051 80.7158C76.8531 80.7485 76.5008 80.6566 76.209 80.457L72.6113 77.9961C72.2769 77.7638 71.8871 77.6237 71.4814 77.5889C71.0757 77.5541 70.668 77.6259 70.2988 77.7979C69.768 78.0504 69.2243 78.2752 68.6699 78.4707C68.2866 78.6099 67.9464 78.8473 67.6836 79.1592C67.421 79.4709 67.2441 79.8459 67.1719 80.2471L66.3682 84.5322C66.303 84.8795 66.1185 85.1932 65.8467 85.4189C65.5747 85.6446 65.2323 85.7685 64.8789 85.7686H61.1816C60.8282 85.7685 60.4859 85.6446 60.2139 85.4189C59.9419 85.1932 59.7566 84.8797 59.6914 84.5322L58.8877 80.248C58.8155 79.8467 58.6387 79.471 58.376 79.1592C58.1133 78.8475 57.7737 78.6099 57.3906 78.4707C56.8362 78.2751 56.2917 78.0504 55.7607 77.7979C55.3916 77.626 54.9838 77.554 54.5781 77.5889C54.1724 77.6237 53.7826 77.7637 53.4482 77.9961L49.8516 80.457C49.5599 80.6564 49.2073 80.7475 48.8555 80.7148C48.5037 80.6821 48.1747 80.5271 47.9248 80.2773L45.3096 77.6631C45.0597 77.4132 44.9048 77.0833 44.8721 76.7314C44.8393 76.3795 44.9313 76.0271 45.1309 75.7354L47.5908 72.1387C47.8232 71.8042 47.9642 71.4145 47.999 71.0088C48.0338 70.6031 47.961 70.1953 47.7891 69.8262C47.5363 69.2955 47.3116 68.7516 47.1162 68.1973C46.977 67.8139 46.7396 67.4738 46.4277 67.2109C46.116 66.9482 45.7411 66.7715 45.3398 66.6992L41.0547 65.8955C40.7073 65.8303 40.3937 65.646 40.168 65.374C39.9422 65.102 39.8184 64.7598 39.8184 64.4063V60.709C39.8184 60.3555 39.9423 60.0132 40.168 59.7412C40.3937 59.4692 40.7073 59.284 41.0547 59.2188L45.3398 58.416C45.7412 58.3438 46.1168 58.1671 46.4287 57.9043C46.7405 57.6415 46.978 57.3012 47.1172 56.918C47.3126 56.3635 47.5373 55.8198 47.79 55.2891C47.9619 54.92 48.0338 54.5121 47.999 54.1064C47.9642 53.7007 47.8231 53.3111 47.5908 52.9766L45.1309 49.3799C44.9313 49.0881 44.8403 48.7358 44.873 48.3838C44.9058 48.0319 45.0597 47.7021 45.3096 47.4521L47.9248 44.8379C48.1748 44.5881 48.5046 44.4331 48.8564 44.4004C49.2083 44.3678 49.5609 44.4596 49.8525 44.6592L53.4492 47.1191C53.7836 47.3514 54.1734 47.4925 54.5791 47.5273C54.9847 47.5621 55.3927 47.4893 55.7617 47.3174C56.2926 47.065 56.8363 46.8402 57.3906 46.6445C57.7739 46.5053 58.1142 46.2679 58.377 45.9561C58.6395 45.6444 58.8155 45.2693 58.8877 44.8682L59.6924 40.583C59.7576 40.2356 59.9419 39.922 60.2139 39.6963C60.4859 39.4705 60.8282 39.3468 61.1816 39.3467H64.8789ZM66.3232 54.6104C64.7514 53.9593 63.0213 53.7882 61.3525 54.1201C59.6838 54.4521 58.1504 55.2715 56.9473 56.4746C55.7441 57.6778 54.9247 59.2111 54.5928 60.8799C54.2609 62.5486 54.4319 64.2786 55.083 65.8506C55.7341 67.4223 56.8364 68.7657 58.251 69.7109C59.6656 70.6562 61.3289 71.161 63.0303 71.1611C65.312 71.1611 67.5009 70.255 69.1143 68.6416C70.7276 67.0282 71.6338 64.8393 71.6338 62.5576C71.6337 60.8563 71.1288 59.1929 70.1836 57.7783C69.2384 56.3638 67.895 55.2615 66.3232 54.6104ZM35.4268 3.83231e-08C36.0781 -7.62079e-05 36.7098 0.227395 37.2109 0.643555C37.7119 1.05963 38.0513 1.63818 38.1709 2.27832L39.2852 8.2168C39.3632 8.65355 39.5549 9.0623 39.8398 9.40234C40.1248 9.74225 40.4939 10.0021 40.9102 10.1553C41.7016 10.4347 42.4782 10.755 43.2363 11.1152C43.6386 11.3012 44.0829 11.3787 44.5244 11.3398C44.9658 11.3009 45.3894 11.147 45.7529 10.8936L50.7383 7.4834C51.2762 7.11593 51.9256 6.94743 52.5742 7.00781C53.2228 7.06822 53.8302 7.35308 54.291 7.81348L57.915 11.4375C58.375 11.8986 58.6595 12.5058 58.7197 13.1543C58.7799 13.8028 58.6123 14.4523 58.2451 14.9902L54.8359 19.9756C54.5828 20.3392 54.4288 20.7628 54.3896 21.2041C54.3506 21.6452 54.4273 22.0889 54.6123 22.4912C54.9726 23.2491 55.2938 24.0255 55.5742 24.8164C55.7266 25.233 55.9855 25.6024 56.3252 25.8877C56.6648 26.1729 57.0732 26.3643 57.5098 26.4424L63.4492 27.5566C64.0895 27.6769 64.6679 28.0173 65.084 28.5186C65.4999 29.0198 65.7282 29.6504 65.7285 30.3018V35.4268C65.7277 35.604 65.7093 35.7812 65.6748 35.9551C65.4118 35.9101 65.1457 35.8858 64.8789 35.8838H61.1816C60.3316 35.8843 59.4953 36.1038 58.7539 36.5195C58.0127 36.9352 57.39 37.534 56.9463 38.2588C56.6518 38.7396 54.9694 42.4896 54.6123 43.2373C54.559 43.3657 54.5166 43.499 54.4863 43.6348L51.8076 41.8018C50.8495 41.1463 49.692 40.8458 48.5361 40.9531C47.3802 41.0605 46.2976 41.5689 45.4766 42.3896L42.8613 45.0039C42.0411 45.8252 41.5342 46.9078 41.4268 48.0635C41.3194 49.2191 41.6187 50.3757 42.2734 51.334L44.3672 54.3955C42.4118 54.9725 40.498 55.6838 38.6406 56.5244C37.9405 56.9754 37.3647 57.5951 36.9658 58.3262C36.5669 59.0573 36.3578 59.877 36.3574 60.71V64.4072C36.362 64.7785 36.4086 65.1489 36.4961 65.5098C36.1582 65.6532 35.7948 65.7276 35.4277 65.7295H30.3027C29.6516 65.7292 29.0207 65.5016 28.5195 65.0859C28.0183 64.67 27.678 64.0913 27.5576 63.4512L26.4434 57.5127C26.3651 57.076 26.1738 56.6671 25.8887 56.3271C25.6035 55.9872 25.2339 55.7282 24.8174 55.5752C24.0261 55.2962 23.2496 54.9754 22.4922 54.6143C22.0895 54.4292 21.6456 54.3518 21.2041 54.3906C20.7626 54.4295 20.3388 54.5833 19.9746 54.8359L14.9893 58.2451C14.4515 58.6128 13.802 58.781 13.1533 58.7207C12.5048 58.6604 11.8973 58.3754 11.4365 57.915L7.81348 54.291C7.3532 53.8305 7.06831 53.2235 7.00781 52.5752C6.94733 51.9267 7.11504 51.2771 7.48242 50.7393L10.8936 45.7539C11.1466 45.3902 11.2999 44.9667 11.3389 44.5254C11.3777 44.0838 11.301 43.6388 11.1152 43.2363C10.7547 42.479 10.4332 41.7038 10.1533 40.9131C10.0008 40.4961 9.74141 40.1263 9.40137 39.8408C9.06143 39.5555 8.65273 39.3642 8.21582 39.2861L2.27832 38.1719C1.63834 38.0517 1.06051 37.7119 0.644531 37.2109C0.228419 36.7096 0.000191239 36.0783 0 35.4268V30.3018C0.000196739 29.6503 0.228417 29.0189 0.644531 28.5176C1.06051 28.0167 1.63839 27.6768 2.27832 27.5566L8.2168 26.4424C8.65321 26.3644 9.06168 26.1735 9.40137 25.8887C9.74113 25.6036 10.0006 25.2338 10.1533 24.8174C10.433 24.0261 10.7535 23.2499 11.1143 22.4922C11.3001 22.0897 11.3777 21.6457 11.3389 21.2041C11.3 20.7628 11.1466 20.3392 10.8936 19.9756L7.48242 14.9902C7.11546 14.4522 6.94744 13.8027 7.00781 13.1543C7.06827 12.5059 7.35343 11.8984 7.81348 11.4375L11.4365 7.81348C11.8976 7.35334 12.5048 7.06818 13.1533 7.00781C13.8018 6.94746 14.4512 7.11534 14.9893 7.48242L19.9746 10.8936C20.3386 11.1466 20.7625 11.3 21.2041 11.3389C21.6456 11.3777 22.0897 11.3008 22.4922 11.1152C23.2497 10.7546 24.0262 10.4334 24.8174 10.1543C25.2336 10.0012 25.6027 9.74214 25.8877 9.40234C26.1728 9.06238 26.3642 8.65355 26.4424 8.2168L27.5566 2.27832C27.677 1.63825 28.0174 1.06048 28.5186 0.644531C29.0198 0.228578 29.6504 0.000300271 30.3018 3.83231e-08H35.4268ZM36.8955 23.1309C34.9705 22.3335 32.8522 22.1248 30.8086 22.5313C28.765 22.9377 26.8874 23.9417 25.4141 25.415C23.9409 26.8883 22.9378 28.7653 22.5312 30.8086C22.1248 32.8521 22.3336 34.9705 23.1309 36.8955C23.9282 38.8205 25.2783 40.4664 27.0107 41.624C28.7433 42.7816 30.7806 43.3994 32.8643 43.3994C35.6582 43.3993 38.3378 42.2891 40.3135 40.3135C42.289 38.3379 43.3993 35.6582 43.3994 32.8643C43.3994 30.7808 42.7814 28.7441 41.624 27.0117C40.4664 25.2792 38.8206 23.9283 36.8955 23.1309Z" fill="url(#paint0_linear_367_270)"/>
<defs>
<linearGradient id="paint0_linear_367_270" x1="40.216" y1="9.94529e-08" x2="40.216" y2="136.222" gradientUnits="userSpaceOnUse">
<stop stop-color="white"/>
<stop offset="1" stop-color="#003B73"/>
</linearGradient>
</defs>
</svg>
