<svg width="86" height="87" viewBox="0 0 86 87" fill="none" xmlns="http://www.w3.org/2000/svg">
<path d="M78.1055 76.5449L74.1309 73.0674C57.7224 90.6374 29.782 90.3906 13.5996 72.3057L17.4434 68.6553C31.157 84.2535 55.4151 85.0238 70.1113 69.665L66.2139 65.9922L77.4902 65.3945L78.1055 76.5449ZM37.3408 41.3203C41.6225 43.8718 46.6231 44.0643 50.9697 41.3359C57.2478 42.2358 62.2571 46.8374 63.5127 53.0752C63.9805 55.394 64.5171 58.0469 63.7158 60.5156L63.7139 60.5127C61.1041 68.5412 39.181 71.9681 27.457 64.0674C24.6213 62.156 24.2028 59.6 24.3818 56.4756C24.8161 48.9395 29.5428 42.5894 37.3408 41.3203ZM36.0693 4.95117C36.3581 6.67453 36.6507 8.28423 37.1162 10.1396C16.856 14.2873 4.06478 34.8606 10.0117 55.2217L15.0293 53.8447L10.1143 63.7422L0 58.749L5.03809 57.001C-1.90703 33.7995 12.3441 9.90661 36.0693 4.95117ZM53.6016 5.21777C77.1028 10.8673 90.6728 35.1384 83.083 58.0645L78.0654 56.4795C84.6658 36.4877 72.9395 15.3525 52.4844 10.3926L51.4014 15.6631L45.2119 6.24219L54.5684 0L53.6016 5.21777ZM41.7256 22.0225C47.1755 20.5542 52.2875 23.8818 53.5635 29.0586C54.8392 34.2355 51.744 39.1269 46.7529 40.4834C41.6789 41.8599 36.486 38.9561 35.0244 33.8574C33.6123 28.9334 36.3067 23.4815 41.7275 22.0244L41.7256 22.0225Z" fill="url(#paint0_linear_173_271)"/>
<defs>
<linearGradient id="paint0_linear_173_271" x1="42.5973" y1="0" x2="42.5973" y2="105.766" gradientUnits="userSpaceOnUse">
<stop stop-color="white"/>
<stop offset="1" stop-color="#003B73"/>
</linearGradient>
</defs>
</svg>
