<svg width="80" height="87" viewBox="0 0 80 87" fill="none" xmlns="http://www.w3.org/2000/svg">
<path d="M72.896 11.1514C67.4462 10.5715 62.0825 9.35916 56.913 7.53888C52.1691 5.86278 47.6187 3.68273 43.3398 1.03612C42.2232 0.358382 40.942 0 39.6359 0C38.3297 0 37.0485 0.358382 35.9319 1.03612L35.9278 1.04018C31.6498 3.68464 27.1008 5.86329 22.3587 7.53888C17.1905 9.35877 11.8281 10.5711 6.37971 11.1515C4.62954 11.3307 3.00815 12.1531 1.82956 13.4593C0.650962 14.7655 -0.000976494 16.4625 1.09784e-06 18.2219V39.3419C0.00286338 47.1344 2.0882 54.7845 6.04016 61.5005C9.99213 68.2164 15.6671 73.7542 22.4778 77.5407L36.178 85.1548C37.2332 85.7483 38.4233 86.06 39.6339 86.06C40.8444 86.06 42.0346 85.7483 43.0897 85.1548L56.7939 77.5407C63.6046 73.7542 69.2796 68.2164 73.2315 61.5005C77.1835 54.7845 79.2689 47.1344 79.2717 39.3419V18.2219C79.2729 16.4631 78.6215 14.7665 77.4437 13.4604C76.266 12.1542 74.6455 11.3315 72.896 11.1514ZM55.8133 35.5508L40.5688 51.8117C39.8449 52.5854 38.8472 53.0455 37.7888 53.0937C36.7303 53.142 35.6949 52.7745 34.9037 52.0697L25.757 43.9393C24.9515 43.2233 24.4634 42.2167 24.4002 41.1409C24.3369 40.0651 24.7035 39.0082 25.4195 38.2028C26.1355 37.3973 27.1421 36.9092 28.2179 36.846C29.2937 36.7827 30.3506 37.1493 31.1561 37.8653L37.3452 43.3637L49.8823 29.9929C50.2628 29.5876 50.7221 29.2644 51.2321 29.0432C51.7421 28.822 52.2919 28.7074 52.8478 28.7065C53.6403 28.7069 54.4154 28.9389 55.0778 29.374C55.7402 29.8092 56.261 30.4284 56.5761 31.1556C56.8911 31.8828 56.9868 32.6862 56.8513 33.467C56.7158 34.2479 56.355 34.9723 55.8133 35.5508Z" fill="url(#paint0_linear_174_364)"/>
<defs>
<linearGradient id="paint0_linear_174_364" x1="39.6359" y1="0" x2="39.6359" y2="105.766" gradientUnits="userSpaceOnUse">
<stop stop-color="white"/>
<stop offset="1" stop-color="#003B73"/>
</linearGradient>
</defs>
</svg>
