<svg width="87" height="87" viewBox="0 0 87 87" fill="none" xmlns="http://www.w3.org/2000/svg">
<path d="M29.583 0C33.8054 0 37.6503 1.64725 40.5088 4.33301V81.7266C37.6503 84.4124 33.8055 86.0596 29.583 86.0596C20.7782 86.0595 13.6152 78.8966 13.6152 70.0918C13.6152 69.6998 13.6291 69.3079 13.6582 68.917C5.94354 67.7946 3.9339e-05 61.136 0 53.1152C0 49.4184 1.28647 45.8603 3.59277 43.0303C1.28656 40.2003 0.00010892 36.642 0 32.9453C0 24.9245 5.94356 18.266 13.6582 17.1436C13.6291 16.7526 13.6152 16.3599 13.6152 15.9678C13.6154 7.16315 20.7783 6.31035e-05 29.583 0ZM56.4775 0C65.2822 0.000106105 72.4451 7.16317 72.4453 15.9678C72.4453 16.3599 72.4314 16.7526 72.4023 17.1436C80.117 18.266 86.0605 24.9246 86.0605 32.9453C86.0604 36.642 84.774 40.2003 82.4678 43.0303C84.7741 45.8603 86.0605 49.4184 86.0605 53.1152C86.0605 61.136 80.117 67.7945 72.4023 68.917C72.4314 69.3079 72.4453 69.6998 72.4453 70.0918C72.4453 78.8966 65.2823 86.0595 56.4775 86.0596C52.2551 86.0596 48.4102 84.4124 45.5518 81.7266V62.3604H51.0283C52.0693 65.2947 54.8715 67.4023 58.1582 67.4023C62.3288 67.4023 65.7215 64.0095 65.7217 59.8389C65.7217 55.6682 62.3289 52.2744 58.1582 52.2744C54.8713 52.2744 52.0691 54.3828 51.0283 57.3174H45.5518V45.5518H57.751C58.7918 48.4862 61.595 50.5938 64.8818 50.5938C69.0524 50.5936 72.4452 47.2008 72.4453 43.0303C72.4453 38.8596 69.0525 35.4659 64.8818 35.4658C61.5949 35.4658 58.7918 37.5742 57.751 40.5088H45.5518V28.7432H51.0283C52.0693 31.6775 54.8715 33.7852 58.1582 33.7852C62.3288 33.7852 65.7215 30.3923 65.7217 26.2217C65.7217 22.051 62.3289 18.6572 58.1582 18.6572C54.8713 18.6572 52.0691 20.7656 51.0283 23.7002H45.5518V4.33301C48.4102 1.64728 52.2552 0 56.4775 0ZM58.1582 57.3174C59.5506 57.3175 60.6797 58.4465 60.6797 59.8389C60.6795 61.2311 59.5505 62.3593 58.1582 62.3594C56.7658 62.3594 55.6369 61.2312 55.6367 59.8389C55.6367 58.4464 56.7657 57.3174 58.1582 57.3174ZM64.8818 40.5088C66.2742 40.5089 67.4033 41.6379 67.4033 43.0303C67.4032 44.4225 66.2741 45.5507 64.8818 45.5508C63.4895 45.5508 62.3605 44.4226 62.3604 43.0303C62.3604 41.6378 63.4894 40.5088 64.8818 40.5088ZM58.1582 23.7002C59.5506 23.7003 60.6797 24.8293 60.6797 26.2217C60.6795 27.6139 59.5505 28.7421 58.1582 28.7422C56.7658 28.7422 55.6369 27.614 55.6367 26.2217C55.6367 24.8292 56.7657 23.7002 58.1582 23.7002Z" fill="url(#paint0_linear_159_116)"/>
<defs>
<linearGradient id="paint0_linear_159_116" x1="43.0303" y1="0" x2="43.0303" y2="105.766" gradientUnits="userSpaceOnUse">
<stop stop-color="white"/>
<stop offset="1" stop-color="#003B73"/>
</linearGradient>
</defs>
</svg>
