<svg width="76" height="76" viewBox="0 0 76 76" fill="none" xmlns="http://www.w3.org/2000/svg">
<path d="M71.9191 22.1474C70.1616 18.2792 67.7679 14.733 64.8374 11.6566C64.753 11.5303 64.6469 11.42 64.5241 11.3307C59.929 6.61647 54.1744 3.19429 47.8382 1.40784C41.502 -0.37861 34.8073 -0.466445 28.4265 1.15316C28.3763 1.16569 28.3262 1.15316 28.2761 1.16569C28.2635 1.17822 28.251 1.19076 28.2385 1.19076C22.6509 2.62738 17.4688 5.33049 13.0934 9.09086C8.7179 12.8512 5.26642 17.568 3.00607 22.8761C0.745712 28.1842 -0.262889 33.9412 0.0583318 39.7016C0.379552 45.462 2.02198 51.0711 4.85848 56.095C7.69499 61.1189 11.6495 65.4227 16.4159 68.6733C21.1823 71.9238 26.6328 74.034 32.3455 74.8405C38.0581 75.647 43.8798 75.1281 49.3598 73.324C54.8398 71.52 59.8311 68.4791 63.9475 64.4368C64.0102 64.3867 64.0603 64.3365 64.123 64.2864C69.5677 58.9002 73.2332 51.9765 74.6269 44.4457C76.0205 36.9149 75.0756 29.1379 71.9191 22.16V22.1474ZM64.1982 14.6898C65.9611 16.7222 67.4836 18.9512 68.7355 21.3327C67.2816 21.3077 66.0156 21.2826 65.0004 21.2575C62.8195 21.2074 61.4658 21.1573 60.5258 21.1322C59.5196 21.0684 58.5101 21.0768 57.5051 21.1573C55.9847 21.2798 54.4735 21.4975 52.9804 21.809C51.539 22.0973 50.9624 22.1725 50.7493 21.972C50.3918 21.4986 50.2262 20.9077 50.2856 20.3175C50.2691 19.6901 50.4933 19.0802 50.9123 18.6129C51.1755 18.3998 51.5766 18.4499 52.642 18.6379C54.2626 18.9794 55.9319 19.0218 57.5678 18.7633C59.3978 18.5437 61.1344 17.8334 62.5939 16.7077C63.2425 16.134 63.7855 15.451 64.1982 14.6898ZM27.8875 3.89808C28.6448 6.0858 28.6227 8.46804 27.8248 10.6413C27.4189 11.5425 26.9279 12.4029 26.3584 13.2108C25.5938 14.3639 24.8668 15.4669 25.7442 16.4194C26.7093 17.4598 27.9627 16.6325 29.4167 15.6799C31.0962 14.577 33.6406 12.8974 35.5207 13.5492C36.5536 13.9833 37.3734 14.8076 37.8018 15.8429C38.0563 16.3054 38.1279 16.8467 38.0024 17.3595C37.9146 17.56 37.3631 17.6352 36.5234 17.748C34.77 17.8908 33.0704 18.4217 31.5474 19.3022C30.0785 20.1643 28.8835 21.4245 28.1006 22.9371C27.5789 24.0251 26.7399 24.9296 25.6941 25.5316C24.4603 26.1935 23.069 26.5056 21.6707 26.434C20.9081 26.3478 20.136 26.4387 19.4142 26.6996C18.6925 26.9604 18.0407 27.3843 17.5095 27.9381C15.291 30.5702 16.5318 35.0323 17.9231 37.4012C19.5901 40.2589 21.6707 41.8256 23.9268 41.9384C24.6514 41.9419 25.3695 41.8007 26.0388 41.523C26.7082 41.2454 27.3154 40.8369 27.8248 40.3216C28.6145 39.6447 29.0908 39.2687 29.8679 39.2687C30.7076 39.2687 31.1463 39.7074 32.0864 40.6976C33.3413 42.16 34.9328 43.2956 36.7239 44.0065C37.9955 44.4862 39.3386 44.7489 40.6972 44.7836C41.8001 44.8463 42.0132 44.909 42.2388 45.1973C43.0911 46.3378 42.0508 49.0828 41.4116 50.261C40.7591 51.4867 39.7782 52.5066 38.5789 53.2064C37.2601 54.0418 36.0907 55.0925 35.1196 56.3148C33.5808 58.3325 32.5181 60.672 32.0112 63.1583C31.9736 63.3087 31.936 63.4842 31.8984 63.6472C30.8276 61.6474 30.3166 59.3956 30.4194 57.1295C30.4693 55.9778 30.6803 54.8387 31.0461 53.7454C31.3236 53.1484 31.4558 52.4941 31.4318 51.8362C31.4079 51.1783 31.2284 50.5354 30.9082 49.9601C29.7927 48.3057 27.6368 48.1678 25.9072 48.0425C25.1662 48.055 24.4286 47.9406 23.7263 47.704C23.8101 47.4611 23.9238 47.2296 24.0647 47.0147C24.3592 46.6191 24.5644 46.1644 24.6661 45.6818C24.7678 45.1993 24.7636 44.7004 24.6538 44.2196C24.0271 42.2769 21.7459 42.1139 19.3394 41.951C16.9956 41.788 14.3258 41.6126 12.7842 39.9957C11.8191 39.0055 11.7689 37.9652 11.6937 36.3985C11.6924 34.5476 11.2815 32.7199 10.4905 31.0465C9.20013 28.6245 7.19002 26.6625 4.73741 25.4313C6.65492 20.2885 9.74605 15.6641 13.7649 11.9259C17.7838 8.18768 22.6196 5.43887 27.8875 3.89808ZM72.7463 37.6017C72.7551 45.7284 69.9319 53.6041 64.7622 59.8745C64.788 57.7806 64.1519 55.7322 62.9448 54.0211C62.0722 52.9415 61.046 51.9956 59.8991 51.2135C59.4799 50.9151 59.0781 50.5929 58.6958 50.2484C59.0237 50.1212 59.3585 50.0124 59.6985 49.9225C60.4631 49.8118 61.194 49.5344 61.8395 49.1099C62.4849 48.6853 63.0292 48.1241 63.4336 47.4659C64.6244 44.9967 62.9448 41.0109 60.062 39.4191C58.1303 38.5349 55.9275 38.4493 53.933 39.181C52.291 39.5821 51.2507 39.7952 50.4109 39.1559C49.9154 38.6393 49.5528 38.0101 49.3541 37.3224C49.1554 36.6347 49.1267 35.909 49.2703 35.2077C49.3667 34.5578 49.5983 33.9353 49.9502 33.3804C50.3021 32.8256 50.7665 32.3507 51.3134 31.9865C51.9212 31.6959 52.6188 31.6554 53.2561 31.8737C54.4879 32.1504 55.7634 32.1717 57.0038 31.9364C58.3412 31.6966 59.611 31.1707 60.7263 30.3947C61.2993 29.9074 62.0297 29.6446 62.7819 29.6552C63.7595 29.7054 64.3612 30.1691 65.5519 31.1468C65.9028 31.435 66.2788 31.7484 66.705 32.0743C68.5355 33.4345 70.5426 34.5393 72.6711 35.3582C72.7087 36.0977 72.7463 36.8497 72.7463 37.6017Z" fill="url(#paint0_linear_367_274)"/>
<defs>
<linearGradient id="paint0_linear_367_274" x1="37.6266" y1="0" x2="37.6266" y2="92.4315" gradientUnits="userSpaceOnUse">
<stop stop-color="white"/>
<stop offset="1" stop-color="#003B73"/>
</linearGradient>
</defs>
</svg>
