<svg width="84" height="86" viewBox="0 0 84 86" fill="none" xmlns="http://www.w3.org/2000/svg">
<path d="M60.0957 63.8115C62.5848 64.6341 64.7507 66.2218 66.2832 68.3486C67.8158 70.4755 68.6364 73.0328 68.6289 75.6543V81.3721C68.6297 82.5836 68.1504 83.7465 67.295 84.6045C66.4395 85.4625 65.2781 85.9454 64.0664 85.9482H19.7637C18.5523 85.9453 17.3915 85.4623 16.5362 84.6045C15.6808 83.7465 15.2004 82.5836 15.2012 81.3721V75.6543C15.1938 73.0328 16.0153 70.4755 17.5479 68.3486C19.0805 66.2219 21.2463 64.634 23.7354 63.8115L31.7334 61.1357C34.6961 63.2778 38.2592 64.4306 41.9151 64.4307C45.571 64.4307 49.1341 63.2778 52.0967 61.1357L60.0957 63.8115ZM45.6719 0C46.2919 0.0033103 46.9044 0.137864 47.4688 0.394531C48.0331 0.651198 48.5374 1.02417 48.9473 1.48926C49.3571 1.95425 49.6639 2.50083 49.8477 3.09277C50.0315 3.68483 50.0882 4.30937 50.0137 4.9248C49.9747 5.25508 50.0562 5.58827 50.2432 5.86328C50.4302 6.13826 50.7098 6.33673 51.0313 6.42188C54.3832 7.27388 57.5945 8.60516 60.5664 10.374C60.8546 10.5424 61.1948 10.6005 61.5225 10.5371C61.8502 10.4737 62.144 10.2929 62.3487 10.0293C62.7315 9.53945 63.2135 9.1361 63.7627 8.84473C64.3121 8.5533 64.9167 8.38017 65.5371 8.33789C66.1576 8.30074 66.7788 8.39632 67.3594 8.61816C67.9402 8.84015 68.4677 9.18331 68.9053 9.625L74.2041 14.9248C74.6467 15.3622 74.9909 15.8894 75.2129 16.4707C75.4348 17.0519 75.5295 17.674 75.4912 18.2949C75.4529 18.9159 75.282 19.5217 74.9903 20.0713C74.6985 20.6208 74.2927 21.1018 73.7998 21.4814C73.5363 21.6861 73.3563 21.98 73.293 22.3076C73.2298 22.6352 73.2877 22.9746 73.4561 23.2627C75.2249 26.2345 76.5553 29.4461 77.4073 32.7979C77.4924 33.1193 77.6909 33.3999 77.9659 33.5869C78.2408 33.7739 78.5742 33.8553 78.9043 33.8164C79.5196 33.7432 80.1439 33.8001 80.7354 33.9844C81.3269 34.1687 81.8731 34.476 82.3379 34.8857C82.8026 35.2954 83.1756 35.7987 83.4327 36.3623C83.6897 36.926 83.8255 37.5377 83.8301 38.1572V45.6719C83.8268 46.2918 83.6922 46.9044 83.4356 47.4688C83.1789 48.0331 82.8059 48.5373 82.3409 48.9473C81.8758 49.3572 81.3285 49.6639 80.7364 49.8477C80.1443 50.0314 79.5197 50.0882 78.9043 50.0137C78.5742 49.9748 78.2408 50.0562 77.9659 50.2432C77.6911 50.4301 77.4934 50.71 77.4082 51.0312C76.5438 54.4098 75.1974 57.6464 73.4112 60.6416C73.2619 60.9539 73.2306 61.3103 73.3243 61.6436C73.4179 61.9767 73.63 62.2643 73.92 62.4531C74.3803 62.8466 74.755 63.3307 75.0205 63.875C75.286 64.4192 75.4362 65.0123 75.4629 65.6172C75.4896 66.2221 75.3923 66.8262 75.1758 67.3916C74.9592 67.9572 74.6281 68.4728 74.2041 68.9053L73.0518 70.0576C72.5494 67.1704 71.2731 64.4734 69.3594 62.2539C67.4456 60.0343 64.9656 58.375 62.1836 57.4531L58.292 56.1514C61.0254 53.0092 62.7969 49.1468 63.3955 45.0254C63.9942 40.904 63.3944 36.6972 61.668 32.9072C59.9416 29.1173 57.1616 25.9037 53.6592 23.6504C50.1568 21.3971 46.0797 20.1993 41.9151 20.1992C37.7504 20.1992 33.6734 21.3971 30.1709 23.6504C26.6685 25.9037 23.8886 29.1173 22.1621 32.9072C20.4357 36.6972 19.8359 40.904 20.4346 45.0254C21.0333 49.1468 22.8048 53.0092 25.5381 56.1514L21.6465 57.4531C18.8646 58.375 16.3845 60.0344 14.4707 62.2539C12.557 64.4734 11.2808 67.1703 10.7784 70.0576L9.62601 68.9053C9.1888 68.4651 8.84962 67.937 8.6309 67.3564C8.4122 66.7758 8.31833 66.1554 8.35648 65.5361C8.39466 64.9168 8.56322 64.3121 8.8516 63.7627C9.13989 63.2135 9.54153 62.7317 10.0293 62.3486C10.293 62.144 10.4738 61.8502 10.5371 61.5225C10.6005 61.1949 10.5423 60.8555 10.3741 60.5674C8.60511 57.5954 7.27393 54.3833 6.42191 51.0312C6.33676 50.7098 6.1383 50.4302 5.86332 50.2432C5.58832 50.0562 5.25509 49.9747 4.92484 50.0137C4.30838 50.0942 3.68158 50.0418 3.08695 49.8604C2.4923 49.6788 1.94301 49.3721 1.4766 48.9609C1.0103 48.5499 0.637528 48.0436 0.38285 47.4766C0.128127 46.9093 -0.00255239 46.2937 3.77641e-05 45.6719V38.1572C-0.0025291 37.5356 0.128204 36.9206 0.38285 36.3535C0.637492 35.7864 1.01034 35.2802 1.4766 34.8691C1.94299 34.458 2.49232 34.1513 3.08695 33.9697C3.68163 33.7882 4.30833 33.7358 4.92484 33.8164C5.25589 33.8606 5.59202 33.7806 5.8682 33.5928C6.14416 33.405 6.34135 33.1218 6.42191 32.7979C7.27394 29.446 8.60518 26.2346 10.3741 23.2627C10.5424 22.9746 10.6004 22.6352 10.5371 22.3076C10.4738 21.9799 10.293 21.6861 10.0293 21.4814C9.54291 21.0972 9.14282 20.6147 8.85551 20.0654C8.56817 19.5161 8.40049 18.9117 8.36234 18.293C8.32426 17.6744 8.41721 17.0549 8.6348 16.4746C8.85245 15.8943 9.18956 15.3658 9.62504 14.9248L14.9248 9.625C15.3622 9.18258 15.8896 8.83916 16.4707 8.61719C17.052 8.39523 17.674 8.29961 18.295 8.33789C18.916 8.37619 19.5218 8.54715 20.0713 8.83887C20.6209 9.13058 21.1018 9.53644 21.4815 10.0293C21.6839 10.2959 21.978 10.4785 22.3067 10.542C22.6352 10.6054 22.9756 10.5459 23.2627 10.374C26.2346 8.60515 29.446 7.27391 32.7979 6.42188C33.1194 6.33673 33.3999 6.13829 33.587 5.86328C33.7739 5.58832 33.8554 5.25499 33.8164 4.9248C33.7419 4.30935 33.7987 3.68485 33.9825 3.09277C34.1663 2.5008 34.473 1.95426 34.8829 1.48926C35.2927 1.02429 35.7962 0.651183 36.3604 0.394531C36.9247 0.137878 37.5373 0.00332788 38.1573 0H45.6719ZM41.9151 27.4482C49.9724 27.4485 56.5039 33.9807 56.5039 42.0381C56.5037 50.0952 49.9722 56.6267 41.9151 56.627C33.8577 56.627 27.3255 50.0954 27.3252 42.0381C27.3252 33.9806 33.8576 27.4482 41.9151 27.4482Z" fill="url(#paint0_linear_367_297)"/>
<defs>
<linearGradient id="paint0_linear_367_297" x1="39.0912" y1="9.96612e-08" x2="39.0912" y2="136.508" gradientUnits="userSpaceOnUse">
<stop stop-color="white"/>
<stop offset="1" stop-color="#003B73"/>
</linearGradient>
</defs>
</svg>
