<svg width="92" height="96" viewBox="0 0 92 96" fill="none" xmlns="http://www.w3.org/2000/svg">
<path d="M1.24171 26.0706C2.42089 25.0025 4.09868 24.9747 5.45655 25.721C6.63119 26.3661 7.34984 27.4786 7.75147 28.7815L14.6978 55.4768L17.0503 57.012C14.9773 58.6101 14.5045 60.9832 15.9497 63.1165L19.7271 68.6956C20.3097 69.5549 21.0023 70.3384 21.9478 70.8176L30.5952 75.1946C30.9903 75.3948 31.3865 75.3177 31.5825 74.9358C31.7548 74.5988 31.5998 74.2302 31.1929 74.0159L23.1753 69.7903C22.3494 69.3553 21.7479 68.8345 21.231 68.0657L17.3374 62.2698C16.6248 61.2081 16.6485 59.8753 17.4849 58.846C18.5973 57.4773 20.5953 57.1923 22.0728 58.2034L27.148 61.679H27.1489C28.2991 62.4662 29.3417 63.1563 30.5747 63.7034L33.7827 65.1282C35.9257 66.0791 37.709 67.4616 39.2026 69.2503C41.828 72.3925 42.9512 76.2996 42.4937 80.3733L42.0855 86.6204C41.9315 88.9863 41.7287 91.2668 41.1655 93.553C40.9188 94.5521 40.096 95.2349 39.0269 95.0218L22.6304 91.7444C21.9035 91.599 21.5643 90.5845 21.6968 89.9632L22.6441 85.5198C22.8216 84.6843 22.3281 83.6487 21.6607 83.0091L9.69093 71.5559C6.72625 68.7194 5.30651 64.2353 4.69483 60.1926L0.0415134 29.4671C-0.15448 28.1748 0.359737 26.8686 1.24171 26.0706ZM85.9839 25.5559C87.484 24.87 89.2484 25.2025 90.2564 26.5012C90.9013 27.3326 91.2126 28.4504 91.0425 29.5735L86.4585 59.805C86.1333 61.9522 85.7362 63.9498 84.936 65.9485C84.0875 68.07 82.9732 70.0688 81.3062 71.6604L69.5308 82.9085C68.8234 83.5836 68.2489 84.6096 68.4478 85.5237L69.3911 89.8606C69.5311 90.5023 69.231 91.5832 68.4624 91.7385L52.437 94.9651C51.8878 95.076 51.3251 95.094 50.8599 94.8528C50.2055 94.5124 49.9684 93.8266 49.8198 93.1311C49.3503 90.9322 49.147 88.7664 48.9995 86.5169L48.5962 80.3743C48.088 75.8245 49.5724 71.4662 52.8159 68.2464C53.8357 67.2341 54.8495 66.3075 56.2085 65.6819L56.2066 65.679L59.7788 64.0374C61.0883 63.4354 62.2799 62.8182 63.4741 62.0051L69.1577 58.1341C70.5598 57.1789 72.4054 57.5069 73.52 58.7473C74.2534 59.5636 74.6067 60.8969 73.9702 61.8596L69.9067 68.0042C69.42 68.7407 68.8431 69.2936 68.0581 69.7093L59.8276 74.0608C59.4584 74.2557 59.3579 74.6324 59.5171 74.9436C59.6765 75.2548 60.0635 75.4089 60.4253 75.2259L69.2817 70.7405C70.1204 70.3162 70.7645 69.5747 71.2749 68.8264L74.8169 63.6253C75.5146 62.6013 76.0985 61.515 75.9673 60.2219C75.8359 58.9201 75.0701 57.8482 74.0698 57.0169L76.3823 55.4846L83.4292 28.5452C83.7856 27.183 84.7854 26.103 85.9839 25.5559ZM43.6929 18.0882C55.8442 16.975 66.0895 26.8435 65.395 39.0735C64.8652 48.4132 57.7601 56.2341 48.3999 57.5696C36.7889 59.2258 26.3409 50.6287 25.6958 39.0081C25.1014 28.306 33.0489 19.0638 43.6929 18.0882ZM9.73292 30.9915C11.5916 30.453 12.8668 32.4584 13.3589 34.2708L19.2251 55.8987L15.9097 53.9788L9.73292 30.9915ZM77.7261 34.2708C78.3722 32.3713 79.3756 30.5038 81.3687 30.9827L75.1851 53.9846L71.8784 55.8831L71.8774 55.8821L77.7261 34.2708ZM45.4478 24.0706C45.0095 24.1266 44.7051 24.3897 44.563 24.8323L41.6567 33.8792L32.1997 33.8694C31.6474 33.8695 31.2563 34.0979 31.0991 34.5813C30.9648 34.9968 31.136 35.4175 31.5396 35.7093L39.2466 41.2805L36.3042 50.2493C36.1481 50.7263 36.1657 51.1438 36.5728 51.4798C36.8291 51.6908 37.325 51.8501 37.731 51.554L45.5552 45.846L45.5562 45.8469L53.3687 51.5559C53.8037 51.8733 54.3068 51.6596 54.563 51.4163C54.9688 51.0309 54.9193 50.6503 54.7622 50.1702L51.8384 41.2815L59.6157 35.6536C59.9839 35.3876 60.1393 34.9749 59.9907 34.5755C59.8981 34.3278 59.6315 33.8833 59.2183 33.8831L49.4351 33.8801L46.4673 24.6731C46.3174 24.2104 45.8192 24.0232 45.4478 24.0706ZM57.9946 4.20241C58.9714 3.22245 60.4749 3.56272 61.2847 4.52761C61.7529 5.08521 62.1142 5.52235 62.1089 6.23171C62.1035 6.94138 61.8408 7.44538 61.3218 7.9612L53.7944 15.43L53.7935 15.4309C52.8953 16.3213 51.4523 15.9666 50.7534 15.0696C49.7467 14.3459 49.397 12.8267 50.3198 11.9007L57.9946 4.20241ZM29.8716 4.47976C30.676 3.57948 32.0845 3.21257 33.0386 4.16238L40.5747 11.6585C41.6021 12.6804 41.4706 14.038 40.4605 15.0374L40.4614 15.0384C39.6053 15.8869 38.593 16.2294 37.4419 15.6038L29.7749 7.96218C29.2462 7.43561 28.9833 6.93283 28.979 6.23074C28.9747 5.52866 29.3644 5.04723 29.8716 4.47976ZM45.5405 0.0276101C46.938 -0.178919 48.0531 0.795686 48.0523 2.19851L48.0396 12.8352V12.8362C47.9825 14.2124 46.8358 15.0613 45.5425 14.846C44.3235 15.0527 43.2752 14.3233 43.0523 13.0784L43.0493 1.82741C43.1958 0.601928 44.3441 -0.150075 45.5405 0.0276101Z" fill="url(#paint0_linear_174_386)"/>
<defs>
<linearGradient id="paint0_linear_174_386" x1="45.5442" y1="0" x2="45.5442" y2="116.828" gradientUnits="userSpaceOnUse">
<stop stop-color="white"/>
<stop offset="1" stop-color="#003B73"/>
</linearGradient>
</defs>
</svg>
