<svg width="87" height="87" viewBox="0 0 87 87" fill="none" xmlns="http://www.w3.org/2000/svg">
<path d="M52.1865 7.55176C55.9353 9.15069 57.844 9.9167 61.5928 11.5156L68.7812 8.0625L77.9307 17.1582L74.4648 24.4414C76.1308 28.1495 76.8963 30.0578 78.4951 33.8467L86.0596 36.5205V49.4463L78.5625 52.1338C76.8965 55.8823 76.1301 57.7904 74.5312 61.5391L77.9844 68.7275C73.4029 73.3494 73.4033 73.3499 68.7812 77.9316L61.5928 74.5322C57.8843 76.1983 55.9756 76.9636 52.1865 78.5625L49.5 86.0605H36.5469L33.8594 78.5625C30.1109 76.8965 28.2027 76.1311 24.4541 74.5322L17.2656 77.9854C12.6435 73.4035 12.6433 73.4034 8.06152 68.7812L11.4609 61.5654C9.86211 57.8707 9.09595 55.9625 7.49707 52.1602L0 49.4727V36.5205L7.55078 33.8066C9.14971 30.0579 9.91572 28.1491 11.5146 24.4004L8.06152 17.1582L17.2119 8.0625L24.4277 11.4619C28.1226 9.86304 30.0306 9.09695 33.833 7.49805L36.5205 0H49.4727L52.1865 7.55176ZM51.8906 21.5361C47.6484 19.7769 42.9792 19.3156 38.4746 20.21C33.9702 21.1043 29.8323 23.3143 26.584 26.5605C23.3356 29.807 21.1226 33.9442 20.2256 38.4482C19.3286 42.9525 19.788 47.6219 21.5449 51.8652C23.3018 56.1084 26.2773 59.7353 30.0957 62.2871C33.9141 64.8389 38.4035 66.2011 42.9961 66.2012C49.1516 66.2012 55.0553 63.7566 59.4092 59.4053C63.7629 55.0541 66.2112 49.1524 66.2148 42.9971C66.2175 38.4044 64.8572 33.9137 62.3076 30.0938C59.758 26.2739 56.1329 23.2955 51.8906 21.5361ZM50.2256 42.7275C53.9536 44.626 56.7759 47.9267 58.0723 51.9043C56.3635 54.3112 54.1031 56.2744 51.4805 57.6289C48.8577 58.9834 45.948 59.6904 42.9961 59.6904C40.0443 59.6904 37.1354 58.9834 34.5127 57.6289C31.8899 56.2744 29.6297 54.3113 27.9209 51.9043C29.2211 47.9363 32.0365 44.6428 35.7539 42.7412C37.8795 44.2195 40.4069 45.0117 42.9961 45.0117C45.5834 45.0129 48.1087 44.2151 50.2256 42.7275ZM42.9961 26.3086C43.927 26.3068 44.8494 26.4888 45.71 26.8438C46.5706 27.1988 47.3528 27.7203 48.0117 28.3779C48.6707 29.0356 49.1941 29.8168 49.5508 30.6768C49.9074 31.5367 50.0908 32.4587 50.0908 33.3896C50.0934 34.7933 49.6793 36.1666 48.9014 37.335C48.1235 38.5031 47.0166 39.4142 45.7207 39.9531C44.4247 40.4921 42.9981 40.6344 41.6211 40.3623C40.244 40.0901 38.9779 39.4155 37.9844 38.4238C36.9911 37.4323 36.3139 36.1684 36.0391 34.792C35.7643 33.4156 35.904 31.9884 36.4404 30.6914C36.977 29.3943 37.8868 28.285 39.0537 27.5049C40.2205 26.7249 41.5926 26.3087 42.9961 26.3086Z" fill="url(#paint0_linear_173_256)"/>
<defs>
<linearGradient id="paint0_linear_173_256" x1="43.0298" y1="0" x2="43.0298" y2="105.767" gradientUnits="userSpaceOnUse">
<stop stop-color="white"/>
<stop offset="1" stop-color="#003B73"/>
</linearGradient>
</defs>
</svg>
