<svg width="79" height="87" viewBox="0 0 79 87" fill="none" xmlns="http://www.w3.org/2000/svg">
<path d="M67.0469 24.0177C69.9647 24.0178 72.7667 25.179 74.832 27.2403C76.8933 29.3057 78.0537 32.1076 78.0537 35.0255V40.0284H59.0371C52.9569 40.0284 48.0293 44.9561 48.0293 51.0362V59.0421C48.0295 65.1221 52.957 70.0489 59.0371 70.0489H78.0537V75.0528C78.0537 77.9707 76.8933 80.7726 74.832 82.838C72.7667 84.8993 69.9647 86.0605 67.0469 86.0607H11.0078C8.08989 86.0607 5.28807 84.8993 3.22266 82.838C1.16126 80.7726 3.54399e-05 77.9708 0 75.0528V35.0255C0 32.1075 1.16123 29.3058 3.22266 27.2403C5.28808 25.179 8.08982 24.0177 11.0078 24.0177H67.0469ZM78.0537 64.045H59.0371C56.2753 64.045 54.0334 61.8038 54.0332 59.0421V51.0362C54.0332 48.2744 56.2752 46.0333 59.0371 46.0333H78.0537V64.045ZM61.042 51.0362C58.8326 51.0364 57.0391 52.8298 57.0391 55.0392C57.0391 57.2485 58.8326 59.042 61.042 59.0421C63.2515 59.0421 65.0449 57.2486 65.0449 55.0392C65.0449 52.8297 63.2515 51.0362 61.042 51.0362ZM40.3848 1.73449C41.0853 0.233649 42.8701 -0.419022 44.3711 0.281362L69.7686 12.1261C71.2695 12.8266 71.9182 14.6114 71.2178 16.1124L69.3203 20.1876C68.5718 20.0755 67.8114 20.0148 67.0469 20.0148H55.3906C55.9068 16.9849 54.366 13.8631 51.4443 12.4982L38.2344 6.34191L40.3848 1.73449ZM20.3701 5.73742C21.0706 4.23639 22.8564 3.58381 24.3574 4.28429L49.7549 16.128C51.2238 16.8125 51.8761 18.5338 51.252 20.0148H13.71L20.3701 5.73742Z" fill="url(#paint0_linear_174_373)"/>
<defs>
<linearGradient id="paint0_linear_174_373" x1="39.0269" y1="0" x2="39.0269" y2="105.767" gradientUnits="userSpaceOnUse">
<stop stop-color="white"/>
<stop offset="1" stop-color="#003B73"/>
</linearGradient>
</defs>
</svg>
