<svg width="86" height="87" viewBox="0 0 86 87" fill="none" xmlns="http://www.w3.org/2000/svg">
<path d="M53.0245 76.0684C57.2079 76.0685 60.5987 79.4602 60.5987 83.6436C60.5985 85.0377 59.4685 86.1679 58.0743 86.168H27.7755C26.3812 86.168 25.2503 85.0378 25.2501 83.6436C25.2501 79.4601 28.6419 76.0684 32.8253 76.0684H53.0245ZM40.3995 24.8242C42.0809 24.7616 43.768 24.7616 45.4493 24.8242V71.0186H40.3995V24.8242ZM31.9425 47.1152H32.8243C34.2187 47.1153 35.3487 48.2462 35.3487 49.6406C35.3886 58.3157 26.1283 64.1443 17.6749 63.9482C9.21981 64.1422 -0.0372464 58.3181 0.000112706 49.6406C0.000112706 48.2462 1.13107 47.1152 2.5255 47.1152H3.40734L11.0636 29.833C13.038 29.6255 15.0039 29.3449 16.9581 28.9941L8.93078 47.1152H26.4191L18.2814 28.7451C19.9631 28.4144 21.6352 28.0322 23.295 27.5957L31.9425 47.1152ZM62.5538 27.5957C64.2135 28.0322 65.8858 28.4145 67.5675 28.7451L59.4298 47.1152H76.9181L68.8907 28.9941C70.8449 29.3449 72.8109 29.6255 74.7853 29.833L82.4415 47.1152H83.3234C84.7178 47.1152 85.8481 48.2462 85.8478 49.6406C85.8478 53.5844 83.9256 57.2515 80.4357 59.9658C73.9271 65.2394 62.4199 65.2391 55.9112 59.9658C52.4213 57.2514 50.4991 53.5844 50.4991 49.6406C50.4991 48.2462 51.6301 47.1152 53.0245 47.1152H53.9064L62.5538 27.5957ZM40.3986 2.50879C40.5217 -0.835009 45.324 -0.837517 45.4484 2.50879V5.11133C50.9439 5.48417 56.3273 7.0684 61.1525 9.74902L65.1417 11.9648C71.1803 15.3197 77.565 18.128 84.1183 20.3125C86.8354 21.2183 86.1845 25.2323 83.3204 25.2324C76.391 25.2324 69.4916 24.2921 62.8146 22.4375C49.802 18.8228 36.0459 18.8228 23.0333 22.4375C16.3561 24.292 9.45684 25.2324 2.52746 25.2324C-0.336631 25.2324 -0.988142 21.2183 1.72863 20.3125C8.28231 18.1279 14.6676 15.3198 20.7062 11.9648L24.6954 9.74902C29.5205 7.06845 34.9029 5.48421 40.3986 5.11133V2.50879Z" fill="url(#paint0_linear_367_317)"/>
<defs>
<linearGradient id="paint0_linear_367_317" x1="40.0321" y1="9.9916e-08" x2="40.0321" y2="136.857" gradientUnits="userSpaceOnUse">
<stop stop-color="white"/>
<stop offset="1" stop-color="#003B73"/>
</linearGradient>
</defs>
</svg>
