<svg width="74" height="69" viewBox="0 0 74 69" fill="none" xmlns="http://www.w3.org/2000/svg">
<rect width="74" height="69" rx="5" fill="white"/>
<path d="M47.1567 9C43.4369 9 40.4109 12.5885 40.4109 16.2729V19.2665L40.382 19.3049V23.0853C38.8189 22.3214 37.0975 21.9336 35.3564 21.9531C33.7792 21.9169 32.2127 22.2211 30.7647 22.8446C29.3166 23.4682 28.0213 24.3964 26.9676 25.5656C24.719 27.9707 23.5947 31.0874 23.5947 34.9158C23.5947 38.7441 24.5745 41.7297 26.5339 43.8726C28.4806 46.0123 31.15 47.0821 34.5421 47.0821C35.7194 47.0828 36.8886 46.8882 38.0017 46.5064C38.9024 46.2575 39.7291 45.795 40.4109 45.1583V46.6311H46.0773V24.4334V16.0762C46.0477 15.7466 46.1492 15.4186 46.3601 15.1629C46.571 14.9071 46.8744 14.7441 47.2048 14.709H49.7297V9H47.1567ZM40.4109 40.8406C39.9813 41.2855 39.446 41.6155 38.8546 41.8001C38.2215 42.0857 37.5396 42.2485 36.8453 42.2799C31.9691 42.2799 29.531 39.7628 29.531 34.7287C29.531 32.1541 30.1445 30.1759 31.3716 28.7942C32.5987 27.4126 34.3446 26.7313 36.6092 26.7505C38.0059 26.7761 39.35 27.2849 40.4109 28.1898V40.8406Z" fill="black"/>
<path d="M62.6866 15.7164C62.6866 13.9351 61.9759 12.2268 60.7109 10.9672C59.4458 9.70762 57.73 9 55.9409 9H52.3271V14.6706H55.9457C56.0834 14.6706 56.2198 14.6977 56.347 14.7503C56.4741 14.8029 56.5896 14.88 56.6868 14.9772C56.7839 15.0744 56.8608 15.1897 56.9131 15.3166C56.9654 15.4434 56.9919 15.5793 56.9913 15.7164V33.8939V53.7361C56.9913 54.0101 56.8823 54.273 56.6882 54.4672C56.494 54.6614 56.2305 54.7711 55.9554 54.7724H17.7648C17.4888 54.7724 17.224 54.6632 17.0289 54.4689C16.8337 54.2745 16.724 54.011 16.724 53.7361V39.9723V16.1482C16.724 14.661 17.9623 14.7377 17.9623 14.7377H34.2485L36.224 14.6706L36.1903 9H17.7648C15.9757 9 14.2599 9.70762 12.9948 10.9672C11.7298 12.2268 11.019 13.9351 11.019 15.7164L11.019 47.9552V53.7122C11.019 55.4935 11.7298 57.2018 12.9948 58.4614C14.2599 59.721 15.9757 60.4286 17.7648 60.4286H55.9457C57.7348 60.4286 59.4506 59.721 60.7157 58.4614C61.9808 57.2018 62.6915 55.4935 62.6915 53.7122V29.7825L62.6866 15.7164Z" fill="#0183FF"/>
</svg>
